{"glyphs":{"0":{"ha":960,"x_min":0,"x_max":0,"o":"m 481 -14 b 911 465 744 -14 911 165 b 481 944 911 764 744 944 b 49 465 215 944 49 764 b 481 -14 49 165 215 -14 z m 481 81 b 153 465 264 81 153 206 b 481 850 153 725 264 850 b 807 465 696 850 807 725 b 481 81 807 206 696 81 z "},"1":{"ha":414,"x_min":0,"x_max":0,"o":"m 332 0 l 332 931 l 251 931 b 63 815 215 843 165 815 l 14 815 l 14 740 l 233 740 l 233 0 z "},"2":{"ha":850,"x_min":0,"x_max":0,"o":"m 799 0 l 799 90 l 371 90 l 163 82 b 358 328 163 213 206 274 l 549 392 b 801 671 713 447 801 528 b 443 944 801 821 693 944 b 57 631 171 944 57 796 l 57 618 l 156 618 l 156 635 b 440 851 156 774 239 851 b 701 671 617 851 701 793 b 522 476 701 572 657 526 l 314 403 b 61 68 126 335 61 247 l 61 0 z "},"3":{"ha":882,"x_min":0,"x_max":0,"o":"m 449 -14 b 838 258 689 -14 838 85 b 631 488 838 382 763 463 l 631 497 b 808 700 747 518 808 596 b 449 944 808 854 676 944 b 49 635 172 944 49 807 l 49 618 l 151 618 l 151 631 b 442 850 151 776 229 850 b 710 685 642 850 710 796 b 493 528 710 579 633 528 l 263 528 l 263 443 l 514 443 b 738 269 656 443 738 388 b 446 81 738 138 654 81 b 151 300 222 81 151 154 l 151 318 l 49 318 l 49 296 b 449 -14 49 121 168 -14 z "},"4":{"ha":939,"x_min":0,"x_max":0,"o":"m 731 0 l 731 197 l 904 197 l 904 288 l 731 288 l 731 931 l 614 931 l 35 269 l 35 197 l 631 197 l 631 0 z m 171 288 l 171 296 l 624 811 l 631 811 l 631 288 z "},"5":{"ha":881,"x_min":0,"x_max":0,"o":"m 451 -14 b 829 290 685 -14 829 103 b 483 582 829 481 688 582 b 168 483 344 582 228 533 l 161 485 l 197 840 l 789 840 l 789 931 l 111 931 l 64 439 l 156 425 l 156 426 l 160 425 b 454 500 228 471 314 500 b 725 290 629 500 725 442 b 453 76 725 136 626 76 b 153 272 258 76 153 139 l 153 292 l 51 292 l 51 272 b 451 -14 51 100 196 -14 z "},"6":{"ha":936,"x_min":0,"x_max":0,"o":"m 486 -14 b 876 285 735 -14 876 103 b 515 576 876 465 743 576 b 171 394 331 576 203 499 l 161 394 l 161 478 b 483 850 161 725 247 850 b 744 647 676 850 744 763 l 744 638 l 851 638 l 851 647 b 483 944 851 835 696 944 b 58 474 193 944 58 753 b 486 -14 58 128 188 -14 z m 483 81 b 181 300 289 81 181 156 b 485 501 181 426 296 501 b 775 292 686 501 775 429 b 483 81 775 150 683 81 z "},"7":{"ha":764,"x_min":0,"x_max":0,"o":"m 347 -1 b 753 850 347 382 478 608 l 753 931 l 14 931 l 14 840 l 640 840 l 640 833 b 238 -1 439 668 238 440 z "},"8":{"ha":894,"x_min":0,"x_max":0,"o":"m 447 -14 b 858 253 700 -14 858 75 b 625 488 858 368 781 457 l 625 497 b 833 703 760 515 833 597 b 447 944 833 846 703 944 b 61 703 193 944 61 846 b 269 497 61 597 135 515 l 269 488 b 36 253 117 457 36 368 b 447 -14 36 75 193 -14 z m 447 521 b 160 685 250 521 160 575 b 447 850 160 788 231 850 b 735 685 665 850 735 788 b 447 521 735 575 644 521 z m 447 81 b 136 268 225 81 136 136 b 447 450 136 389 229 450 b 758 268 665 450 758 389 b 447 81 758 136 668 81 z "},"9":{"ha":936,"x_min":0,"x_max":0,"o":"m 454 -14 b 876 467 742 -14 876 183 b 449 944 876 807 747 944 b 58 646 200 944 58 828 b 419 354 58 467 192 354 b 764 547 604 354 731 438 l 774 547 l 774 463 b 454 81 774 210 688 81 b 193 283 261 81 193 168 l 193 293 l 86 293 l 86 283 b 454 -14 86 96 242 -14 z m 450 429 b 160 639 249 429 160 501 b 453 850 160 781 251 850 b 754 642 646 850 754 778 b 450 429 754 508 639 429 z "},"A":{"ha":994,"x_min":0,"x_max":0,"o":"m 115 0 l 240 274 l 751 274 l 876 0 l 988 0 l 565 931 l 428 931 l 7 0 z m 440 715 l 490 836 l 499 836 l 550 715 l 711 363 l 281 363 z "},"À":{"ha":994,"x_min":0,"x_max":0,"o":"m 547 1014 l 374 1186 l 238 1186 l 443 1014 z m 115 0 l 240 274 l 751 274 l 876 0 l 988 0 l 565 931 l 428 931 l 7 0 z m 440 715 l 490 836 l 499 836 l 550 715 l 711 363 l 281 363 z "},"Á":{"ha":994,"x_min":0,"x_max":0,"o":"m 550 1014 l 756 1186 l 619 1186 l 447 1014 z m 115 0 l 240 274 l 751 274 l 876 0 l 988 0 l 565 931 l 428 931 l 7 0 z m 440 715 l 490 836 l 499 836 l 550 715 l 711 363 l 281 363 z "},"Â":{"ha":994,"x_min":0,"x_max":0,"o":"m 367 1014 l 493 1139 l 501 1139 l 626 1014 l 732 1014 l 551 1194 l 443 1194 l 261 1014 z m 115 0 l 240 274 l 751 274 l 876 0 l 988 0 l 565 931 l 428 931 l 7 0 z m 440 715 l 490 836 l 499 836 l 550 715 l 711 363 l 281 363 z "},"Ã":{"ha":994,"x_min":0,"x_max":0,"o":"m 365 1039 l 365 1076 b 406 1126 365 1114 381 1126 b 469 1097 429 1126 449 1114 l 504 1076 b 607 1035 533 1054 564 1035 b 699 1146 668 1035 699 1081 l 699 1194 l 631 1194 l 631 1160 b 589 1107 631 1118 610 1107 b 522 1136 564 1107 544 1119 l 493 1157 b 392 1197 461 1179 431 1197 b 296 1088 319 1197 296 1149 l 296 1039 z m 115 0 l 240 274 l 751 274 l 876 0 l 988 0 l 565 931 l 428 931 l 7 0 z m 440 715 l 490 836 l 499 836 l 550 715 l 711 363 l 281 363 z "},"Ä":{"ha":994,"x_min":0,"x_max":0,"o":"m 658 1014 l 658 1178 l 564 1178 l 564 1014 z m 431 1014 l 431 1178 l 335 1178 l 335 1014 z m 115 0 l 240 274 l 751 274 l 876 0 l 988 0 l 565 931 l 428 931 l 7 0 z m 440 715 l 490 836 l 499 836 l 550 715 l 711 363 l 281 363 z "},"Å":{"ha":994,"x_min":0,"x_max":0,"o":"m 115 0 l 240 274 l 751 274 l 876 0 l 988 0 l 579 900 b 656 1025 626 922 656 967 b 497 1167 656 1111 592 1167 b 338 1025 401 1167 338 1111 b 414 900 338 968 367 922 l 7 0 z m 496 946 b 403 1025 431 946 403 972 b 496 1104 403 1076 431 1104 b 589 1025 561 1104 589 1076 b 496 946 589 972 561 946 z m 440 715 l 490 836 l 499 836 l 550 715 l 711 363 l 281 363 z "},"Ā":{"ha":994,"x_min":0,"x_max":0,"o":"m 685 1069 l 685 1142 l 310 1142 l 310 1069 z m 115 0 l 240 274 l 751 274 l 876 0 l 988 0 l 565 931 l 428 931 l 7 0 z m 440 715 l 490 836 l 499 836 l 550 715 l 711 363 l 281 363 z "},"Ă":{"ha":994,"x_min":0,"x_max":0,"o":"m 497 1000 b 678 1154 604 1000 678 1060 l 678 1168 l 603 1168 l 603 1154 b 497 1067 603 1097 576 1067 b 392 1154 419 1067 392 1097 l 392 1168 l 317 1168 l 317 1154 b 497 1000 317 1060 389 1000 z m 115 0 l 240 274 l 751 274 l 876 0 l 988 0 l 565 931 l 428 931 l 7 0 z m 440 715 l 490 836 l 499 836 l 550 715 l 711 363 l 281 363 z "},"Ą":{"ha":994,"x_min":0,"x_max":0,"o":"m 115 0 l 240 274 l 751 274 l 876 0 l 919 0 l 875 -50 b 814 -165 844 -83 814 -115 b 942 -260 814 -225 858 -260 l 1042 -260 l 1042 -192 l 957 -192 b 894 -144 911 -192 894 -172 b 929 -75 894 -122 907 -103 l 988 0 l 565 931 l 428 931 l 7 0 z m 440 715 l 490 836 l 499 836 l 550 715 l 711 363 l 281 363 z "},"B":{"ha":901,"x_min":0,"x_max":0,"o":"m 575 0 b 867 257 753 0 867 96 b 650 485 867 376 793 461 l 650 493 b 838 700 778 513 838 593 b 561 931 838 847 728 931 l 72 931 l 72 0 z m 171 840 l 553 840 b 739 682 679 840 739 790 b 544 525 739 575 671 525 l 171 525 z m 171 440 l 567 440 b 767 267 696 440 767 386 b 567 90 767 144 699 90 l 171 90 z "},"C":{"ha":983,"x_min":0,"x_max":0,"o":"m 513 -14 b 935 332 754 -14 935 121 l 935 349 l 828 349 l 828 332 b 514 82 828 174 718 82 b 153 465 282 82 153 213 b 514 849 153 718 282 849 b 828 599 718 849 828 757 l 828 582 l 935 582 l 935 599 b 513 944 935 810 753 944 b 49 465 240 944 49 756 b 513 -14 49 175 240 -14 z "},"Ç":{"ha":983,"x_min":0,"x_max":0,"o":"m 558 -283 b 676 -181 633 -283 676 -244 b 558 -79 676 -119 633 -79 l 525 -79 l 525 -14 b 935 332 760 -10 935 125 l 935 349 l 828 349 l 828 332 b 514 82 828 174 718 82 b 153 465 282 82 153 213 b 514 849 153 718 282 849 b 828 599 718 849 828 757 l 828 582 l 935 582 l 935 599 b 513 944 935 810 753 944 b 49 465 240 944 49 756 b 463 -11 49 193 217 10 l 463 -142 l 560 -142 b 608 -182 586 -142 608 -147 b 560 -221 608 -214 586 -221 l 449 -221 l 449 -283 z "},"Ć":{"ha":983,"x_min":0,"x_max":0,"o":"m 546 1014 l 750 1186 l 615 1186 l 442 1014 z m 513 -14 b 935 332 754 -14 935 121 l 935 349 l 828 349 l 828 332 b 514 82 828 174 718 82 b 153 465 282 82 153 213 b 514 849 153 718 282 849 b 828 599 718 849 828 757 l 828 582 l 935 582 l 935 599 b 513 944 935 810 753 944 b 49 465 240 944 49 756 b 513 -14 49 175 240 -14 z "},"Ċ":{"ha":983,"x_min":0,"x_max":0,"o":"m 540 1014 l 540 1178 l 442 1178 l 442 1014 z m 513 -14 b 935 332 754 -14 935 121 l 935 349 l 828 349 l 828 332 b 514 82 828 174 718 82 b 153 465 282 82 153 213 b 514 849 153 718 282 849 b 828 599 718 849 828 757 l 828 582 l 935 582 l 935 599 b 513 944 935 810 753 944 b 49 465 240 944 49 756 b 513 -14 49 175 240 -14 z "},"Č":{"ha":983,"x_min":0,"x_max":0,"o":"m 621 1194 l 496 1069 l 488 1069 l 363 1194 l 257 1194 l 438 1014 l 546 1014 l 726 1194 z m 513 -14 b 935 332 754 -14 935 121 l 935 349 l 828 349 l 828 332 b 514 82 828 174 718 82 b 153 465 282 82 153 213 b 514 849 153 718 282 849 b 828 599 718 849 828 757 l 828 582 l 935 582 l 935 599 b 513 944 935 810 753 944 b 49 465 240 944 49 756 b 513 -14 49 175 240 -14 z "},"D":{"ha":996,"x_min":0,"x_max":0,"o":"m 490 0 b 947 465 769 0 947 181 b 490 931 947 750 769 931 l 86 931 l 86 0 z m 490 840 b 843 465 726 840 843 718 b 490 90 843 213 726 90 l 186 90 l 186 840 z "},"Ď":{"ha":996,"x_min":0,"x_max":0,"o":"m 646 1194 l 521 1069 l 513 1069 l 388 1194 l 281 1194 l 463 1014 l 571 1014 l 751 1194 z m 490 0 b 947 465 769 0 947 181 b 490 931 947 750 769 931 l 86 931 l 86 0 z m 490 840 b 843 465 726 840 843 718 b 490 90 843 213 726 90 l 186 90 l 186 840 z "},"E":{"ha":844,"x_min":0,"x_max":0,"o":"m 790 0 l 790 90 l 182 90 l 182 424 l 769 424 l 769 513 l 182 513 l 182 840 l 790 840 l 790 931 l 83 931 l 83 0 z "},"È":{"ha":844,"x_min":0,"x_max":0,"o":"m 486 1014 l 313 1186 l 176 1186 l 382 1014 z m 790 0 l 790 90 l 182 90 l 182 424 l 769 424 l 769 513 l 182 513 l 182 840 l 790 840 l 790 931 l 83 931 l 83 0 z "},"É":{"ha":844,"x_min":0,"x_max":0,"o":"m 489 1014 l 694 1186 l 558 1186 l 386 1014 z m 790 0 l 790 90 l 182 90 l 182 424 l 769 424 l 769 513 l 182 513 l 182 840 l 790 840 l 790 931 l 83 931 l 83 0 z "},"Ê":{"ha":844,"x_min":0,"x_max":0,"o":"m 306 1014 l 432 1139 l 440 1139 l 565 1014 l 671 1014 l 490 1194 l 381 1194 l 200 1014 z m 790 0 l 790 90 l 182 90 l 182 424 l 769 424 l 769 513 l 182 513 l 182 840 l 790 840 l 790 931 l 83 931 l 83 0 z "},"Ë":{"ha":844,"x_min":0,"x_max":0,"o":"m 597 1014 l 597 1178 l 503 1178 l 503 1014 z m 368 1014 l 368 1178 l 274 1178 l 274 1014 z m 790 0 l 790 90 l 182 90 l 182 424 l 769 424 l 769 513 l 182 513 l 182 840 l 790 840 l 790 931 l 83 931 l 83 0 z "},"Ē":{"ha":844,"x_min":0,"x_max":0,"o":"m 624 1069 l 624 1142 l 249 1142 l 249 1069 z m 790 0 l 790 90 l 182 90 l 182 424 l 769 424 l 769 513 l 182 513 l 182 840 l 790 840 l 790 931 l 83 931 l 83 0 z "},"Ĕ":{"ha":844,"x_min":0,"x_max":0,"o":"m 436 1000 b 617 1154 543 1000 617 1060 l 617 1168 l 542 1168 l 542 1154 b 436 1067 542 1097 515 1067 b 331 1154 358 1067 331 1097 l 331 1168 l 256 1168 l 256 1154 b 436 1000 256 1060 328 1000 z m 790 0 l 790 90 l 182 90 l 182 424 l 769 424 l 769 513 l 182 513 l 182 840 l 790 840 l 790 931 l 83 931 l 83 0 z "},"Ė":{"ha":844,"x_min":0,"x_max":0,"o":"m 485 1014 l 485 1178 l 386 1178 l 386 1014 z m 790 0 l 790 90 l 182 90 l 182 424 l 769 424 l 769 513 l 182 513 l 182 840 l 790 840 l 790 931 l 83 931 l 83 0 z "},"Ę":{"ha":844,"x_min":0,"x_max":0,"o":"m 769 424 l 769 513 l 182 513 l 182 840 l 790 840 l 790 931 l 83 931 l 83 0 l 722 0 l 678 -50 b 617 -165 647 -83 617 -115 b 744 -260 617 -225 661 -260 l 844 -260 l 844 -192 l 760 -192 b 697 -144 714 -192 697 -172 b 732 -75 697 -122 710 -103 l 790 0 l 790 90 l 182 90 l 182 424 z "},"Ě":{"ha":844,"x_min":0,"x_max":0,"o":"m 565 1194 l 440 1069 l 432 1069 l 307 1194 l 200 1194 l 382 1014 l 490 1014 l 671 1194 z m 790 0 l 790 90 l 182 90 l 182 424 l 769 424 l 769 513 l 182 513 l 182 840 l 790 840 l 790 931 l 83 931 l 83 0 z "},"F":{"ha":829,"x_min":0,"x_max":0,"o":"m 182 0 l 182 396 l 760 396 l 760 485 l 182 485 l 182 840 l 781 840 l 781 931 l 83 931 l 83 0 z "},"G":{"ha":1008,"x_min":0,"x_max":0,"o":"m 500 -14 b 847 203 665 -14 800 53 l 854 203 l 854 0 l 943 0 l 943 458 l 474 458 l 474 381 l 843 381 l 843 346 b 514 82 843 165 735 82 b 153 465 282 82 153 213 b 518 849 153 718 283 849 b 835 606 724 849 835 760 l 835 593 l 942 593 l 942 606 b 519 944 942 813 761 944 b 49 465 242 944 49 756 b 500 -14 49 175 235 -14 z "},"Ĝ":{"ha":1008,"x_min":0,"x_max":0,"o":"m 389 1014 l 515 1139 l 524 1139 l 649 1014 l 754 1014 l 574 1194 l 464 1194 l 283 1014 z m 500 -14 b 847 203 665 -14 800 53 l 854 203 l 854 0 l 943 0 l 943 458 l 474 458 l 474 381 l 843 381 l 843 346 b 514 82 843 165 735 82 b 153 465 282 82 153 213 b 518 849 153 718 283 849 b 835 606 724 849 835 760 l 835 593 l 942 593 l 942 606 b 519 944 942 813 761 944 b 49 465 242 944 49 756 b 500 -14 49 175 235 -14 z "},"Ğ":{"ha":1008,"x_min":0,"x_max":0,"o":"m 519 1000 b 700 1154 626 1000 700 1060 l 700 1168 l 625 1168 l 625 1154 b 519 1067 625 1097 599 1067 b 414 1154 442 1067 414 1097 l 414 1168 l 339 1168 l 339 1154 b 519 1000 339 1060 411 1000 z m 500 -14 b 847 203 665 -14 800 53 l 854 203 l 854 0 l 943 0 l 943 458 l 474 458 l 474 381 l 843 381 l 843 346 b 514 82 843 165 735 82 b 153 465 282 82 153 213 b 518 849 153 718 283 849 b 835 606 724 849 835 760 l 835 593 l 942 593 l 942 606 b 519 944 942 813 761 944 b 49 465 242 944 49 756 b 500 -14 49 175 235 -14 z "},"Ġ":{"ha":1008,"x_min":0,"x_max":0,"o":"m 568 1014 l 568 1178 l 469 1178 l 469 1014 z m 500 -14 b 847 203 665 -14 800 53 l 854 203 l 854 0 l 943 0 l 943 458 l 474 458 l 474 381 l 843 381 l 843 346 b 514 82 843 165 735 82 b 153 465 282 82 153 213 b 518 849 153 718 283 849 b 835 606 724 849 835 760 l 835 593 l 942 593 l 942 606 b 519 944 942 813 761 944 b 49 465 242 944 49 756 b 500 -14 49 175 235 -14 z "},"Ģ":{"ha":1008,"x_min":0,"x_max":0,"o":"m 500 -14 b 847 203 665 -14 800 53 l 854 203 l 854 0 l 943 0 l 943 458 l 474 458 l 474 381 l 843 381 l 843 346 b 514 82 843 165 735 82 b 153 465 282 82 153 213 b 518 849 153 718 283 849 b 835 606 724 849 835 760 l 835 593 l 942 593 l 942 606 b 519 944 942 813 761 944 b 49 465 242 944 49 756 b 500 -14 49 175 235 -14 z m 408 -278 l 558 -97 l 429 -97 l 307 -278 z "},"H":{"ha":963,"x_min":0,"x_max":0,"o":"m 182 0 l 182 424 l 781 424 l 781 0 l 879 0 l 879 931 l 781 931 l 781 514 l 182 514 l 182 931 l 83 931 l 83 0 z "},"I":{"ha":264,"x_min":0,"x_max":0,"o":"m 182 0 l 182 931 l 83 931 l 83 0 z "},"Ì":{"ha":264,"x_min":0,"x_max":0,"o":"m 182 1014 l 8 1186 l -126 1186 l 79 1014 z m 182 0 l 182 931 l 83 931 l 83 0 z "},"Í":{"ha":264,"x_min":0,"x_max":0,"o":"m 186 1014 l 392 1186 l 256 1186 l 82 1014 z m 182 0 l 182 931 l 83 931 l 83 0 z "},"Î":{"ha":264,"x_min":0,"x_max":0,"o":"m 3 1014 l 128 1139 l 136 1139 l 261 1014 l 367 1014 l 186 1194 l 78 1194 l -103 1014 z m 182 0 l 182 931 l 83 931 l 83 0 z "},"Ï":{"ha":264,"x_min":0,"x_max":0,"o":"m 294 1014 l 294 1178 l 199 1178 l 199 1014 z m 65 1014 l 65 1178 l -31 1178 l -31 1014 z m 182 0 l 182 931 l 83 931 l 83 0 z "},"Ĩ":{"ha":264,"x_min":0,"x_max":0,"o":"m 0 1039 l 0 1076 b 40 1126 0 1114 15 1126 b 106 1097 65 1126 85 1114 l 139 1076 b 242 1035 169 1054 200 1035 b 333 1146 303 1035 333 1081 l 333 1194 l 265 1194 l 265 1160 b 224 1107 265 1118 246 1107 b 158 1136 199 1107 179 1119 l 128 1157 b 28 1197 96 1179 67 1197 b -68 1088 -46 1197 -68 1149 l -68 1039 z m 182 0 l 182 931 l 83 931 l 83 0 z "},"Ī":{"ha":264,"x_min":0,"x_max":0,"o":"m 319 1069 l 319 1142 l -56 1142 l -56 1069 z m 182 0 l 182 931 l 83 931 l 83 0 z "},"Ĭ":{"ha":264,"x_min":0,"x_max":0,"o":"m 132 1000 b 313 1154 240 1000 313 1060 l 313 1168 l 238 1168 l 238 1154 b 132 1067 238 1097 211 1067 b 26 1154 56 1067 26 1097 l 26 1168 l -49 1168 l -49 1154 b 132 1000 -49 1060 25 1000 z m 182 0 l 182 931 l 83 931 l 83 0 z "},"Į":{"ha":264,"x_min":0,"x_max":0,"o":"m 236 -260 l 236 -192 l 151 -192 b 89 -144 106 -192 89 -172 b 124 -75 89 -122 101 -103 l 182 0 l 182 931 l 83 931 l 83 0 l 113 0 l 69 -50 b 8 -165 39 -83 8 -115 b 136 -260 8 -225 53 -260 z "},"İ":{"ha":264,"x_min":0,"x_max":0,"o":"m 182 1014 l 182 1178 l 83 1178 l 83 1014 z m 182 0 l 182 931 l 83 931 l 83 0 z "},"J":{"ha":856,"x_min":0,"x_max":0,"o":"m 407 -14 b 779 332 675 -14 779 136 l 779 931 l 676 931 l 676 326 b 407 83 676 167 603 83 b 138 331 210 83 138 167 l 138 382 l 35 382 l 35 335 b 407 -14 35 138 140 -14 z "},"Ĵ":{"ha":856,"x_min":0,"x_max":0,"o":"m 603 1014 l 729 1139 l 738 1139 l 863 1014 l 968 1014 l 788 1194 l 678 1194 l 497 1014 z m 407 -14 b 779 332 675 -14 779 136 l 779 931 l 676 931 l 676 326 b 407 83 676 167 603 83 b 138 331 210 83 138 167 l 138 382 l 35 382 l 35 335 b 407 -14 35 138 140 -14 z "},"K":{"ha":936,"x_min":0,"x_max":0,"o":"m 182 0 l 182 415 l 508 415 l 800 0 l 918 0 l 590 471 l 917 931 l 799 931 l 506 511 l 182 511 l 182 931 l 83 931 l 83 0 z "},"Ķ":{"ha":936,"x_min":0,"x_max":0,"o":"m 182 0 l 182 415 l 508 415 l 800 0 l 918 0 l 590 471 l 917 931 l 799 931 l 506 511 l 182 511 l 182 931 l 83 931 l 83 0 z m 411 -278 l 561 -97 l 431 -97 l 308 -278 z "},"L":{"ha":800,"x_min":0,"x_max":0,"o":"m 772 0 l 772 90 l 182 90 l 182 931 l 83 931 l 83 0 z "},"Ĺ":{"ha":800,"x_min":0,"x_max":0,"o":"m 186 1014 l 392 1186 l 256 1186 l 83 1014 z m 772 0 l 772 90 l 182 90 l 182 931 l 83 931 l 83 0 z "},"Ļ":{"ha":800,"x_min":0,"x_max":0,"o":"m 772 0 l 772 90 l 182 90 l 182 931 l 83 931 l 83 0 z m 347 -278 l 497 -97 l 368 -97 l 244 -278 z "},"Ľ":{"ha":800,"x_min":0,"x_max":0,"o":"m 772 0 l 772 90 l 182 90 l 182 931 l 83 931 l 83 0 z m 493 611 b 589 707 553 611 589 642 l 589 931 l 467 931 l 467 738 l 521 738 l 521 704 b 493 675 521 679 511 675 l 465 675 l 465 611 z "},"M":{"ha":1229,"x_min":0,"x_max":0,"o":"m 182 0 l 182 656 l 179 781 l 186 781 l 246 656 l 556 56 l 675 56 l 985 656 l 1043 781 l 1051 781 l 1049 656 l 1049 0 l 1147 0 l 1147 931 l 1011 931 l 700 324 l 619 151 l 613 151 l 531 324 l 218 931 l 83 931 l 83 0 z "},"N":{"ha":978,"x_min":0,"x_max":0,"o":"m 182 0 l 182 626 l 179 782 l 186 782 l 303 625 l 788 0 l 896 0 l 896 931 l 797 931 l 797 296 l 800 143 l 792 143 l 679 299 l 192 931 l 83 931 l 83 0 z "},"Ñ":{"ha":978,"x_min":0,"x_max":0,"o":"m 357 1039 l 357 1076 b 397 1126 357 1114 374 1126 b 463 1097 422 1126 442 1114 l 496 1076 b 599 1035 526 1054 557 1035 b 692 1146 661 1035 692 1081 l 692 1194 l 624 1194 l 624 1160 b 581 1107 624 1118 603 1107 b 515 1136 556 1107 538 1119 l 486 1157 b 385 1197 454 1179 424 1197 b 289 1088 311 1197 289 1149 l 289 1039 z m 182 0 l 182 626 l 179 782 l 186 782 l 303 625 l 788 0 l 896 0 l 896 931 l 797 931 l 797 296 l 800 143 l 792 143 l 679 299 l 192 931 l 83 931 l 83 0 z "},"Ń":{"ha":978,"x_min":0,"x_max":0,"o":"m 543 1014 l 749 1186 l 613 1186 l 439 1014 z m 182 0 l 182 626 l 179 782 l 186 782 l 303 625 l 788 0 l 896 0 l 896 931 l 797 931 l 797 296 l 800 143 l 792 143 l 679 299 l 192 931 l 83 931 l 83 0 z "},"Ņ":{"ha":978,"x_min":0,"x_max":0,"o":"m 182 0 l 182 626 l 179 782 l 186 782 l 303 625 l 788 0 l 896 0 l 896 931 l 797 931 l 797 296 l 800 143 l 792 143 l 679 299 l 192 931 l 83 931 l 83 0 z m 407 -278 l 557 -97 l 426 -97 l 304 -278 z "},"Ň":{"ha":978,"x_min":0,"x_max":0,"o":"m 619 1194 l 494 1069 l 485 1069 l 360 1194 l 254 1194 l 435 1014 l 544 1014 l 725 1194 z m 182 0 l 182 626 l 179 782 l 186 782 l 303 625 l 788 0 l 896 0 l 896 931 l 797 931 l 797 296 l 800 143 l 792 143 l 679 299 l 192 931 l 83 931 l 83 0 z "},"O":{"ha":1039,"x_min":0,"x_max":0,"o":"m 518 -14 b 990 465 797 -14 990 175 b 518 944 990 756 797 944 b 49 465 242 944 49 756 b 518 -14 49 175 242 -14 z m 518 82 b 153 465 283 82 153 213 b 518 849 153 718 283 849 b 886 465 754 849 886 718 b 518 82 886 213 754 82 z "},"Ò":{"ha":1039,"x_min":0,"x_max":0,"o":"m 569 1014 l 396 1186 l 260 1186 l 465 1014 z m 518 -14 b 990 465 797 -14 990 175 b 518 944 990 756 797 944 b 49 465 242 944 49 756 b 518 -14 49 175 242 -14 z m 518 82 b 153 465 283 82 153 213 b 518 849 153 718 283 849 b 886 465 754 849 886 718 b 518 82 886 213 754 82 z "},"Ó":{"ha":1039,"x_min":0,"x_max":0,"o":"m 572 1014 l 778 1186 l 642 1186 l 469 1014 z m 518 -14 b 990 465 797 -14 990 175 b 518 944 990 756 797 944 b 49 465 242 944 49 756 b 518 -14 49 175 242 -14 z m 518 82 b 153 465 283 82 153 213 b 518 849 153 718 283 849 b 886 465 754 849 886 718 b 518 82 886 213 754 82 z "},"Ô":{"ha":1039,"x_min":0,"x_max":0,"o":"m 389 1014 l 515 1139 l 524 1139 l 649 1014 l 754 1014 l 574 1194 l 465 1194 l 283 1014 z m 518 -14 b 990 465 797 -14 990 175 b 518 944 990 756 797 944 b 49 465 242 944 49 756 b 518 -14 49 175 242 -14 z m 518 82 b 153 465 283 82 153 213 b 518 849 153 718 283 849 b 886 465 754 849 886 718 b 518 82 886 213 754 82 z "},"Õ":{"ha":1039,"x_min":0,"x_max":0,"o":"m 388 1039 l 388 1076 b 428 1126 388 1114 403 1126 b 492 1097 451 1126 471 1114 l 526 1076 b 629 1035 556 1054 586 1035 b 721 1146 690 1035 721 1081 l 721 1194 l 653 1194 l 653 1160 b 611 1107 653 1118 632 1107 b 544 1136 586 1107 567 1119 l 515 1157 b 414 1197 483 1179 453 1197 b 318 1088 342 1197 318 1149 l 318 1039 z m 518 -14 b 990 465 797 -14 990 175 b 518 944 990 756 797 944 b 49 465 242 944 49 756 b 518 -14 49 175 242 -14 z m 518 82 b 153 465 283 82 153 213 b 518 849 153 718 283 849 b 886 465 754 849 886 718 b 518 82 886 213 754 82 z "},"Ö":{"ha":1039,"x_min":0,"x_max":0,"o":"m 681 1014 l 681 1178 l 586 1178 l 586 1014 z m 453 1014 l 453 1178 l 357 1178 l 357 1014 z m 518 -14 b 990 465 797 -14 990 175 b 518 944 990 756 797 944 b 49 465 242 944 49 756 b 518 -14 49 175 242 -14 z m 518 82 b 153 465 283 82 153 213 b 518 849 153 718 283 849 b 886 465 754 849 886 718 b 518 82 886 213 754 82 z "},"Ō":{"ha":1039,"x_min":0,"x_max":0,"o":"m 707 1069 l 707 1142 l 332 1142 l 332 1069 z m 518 -14 b 990 465 797 -14 990 175 b 518 944 990 756 797 944 b 49 465 242 944 49 756 b 518 -14 49 175 242 -14 z m 518 82 b 153 465 283 82 153 213 b 518 849 153 718 283 849 b 886 465 754 849 886 718 b 518 82 886 213 754 82 z "},"Ŏ":{"ha":1039,"x_min":0,"x_max":0,"o":"m 519 1000 b 700 1154 626 1000 700 1060 l 700 1168 l 625 1168 l 625 1154 b 519 1067 625 1097 599 1067 b 414 1154 442 1067 414 1097 l 414 1168 l 339 1168 l 339 1154 b 519 1000 339 1060 411 1000 z m 518 -14 b 990 465 797 -14 990 175 b 518 944 990 756 797 944 b 49 465 242 944 49 756 b 518 -14 49 175 242 -14 z m 518 82 b 153 465 283 82 153 213 b 518 849 153 718 283 849 b 886 465 754 849 886 718 b 518 82 886 213 754 82 z "},"Ő":{"ha":1039,"x_min":0,"x_max":0,"o":"m 661 1014 l 828 1186 l 706 1186 l 565 1014 z m 432 1014 l 600 1186 l 476 1186 l 338 1014 z m 518 -14 b 990 465 797 -14 990 175 b 518 944 990 756 797 944 b 49 465 242 944 49 756 b 518 -14 49 175 242 -14 z m 518 82 b 153 465 283 82 153 213 b 518 849 153 718 283 849 b 886 465 754 849 886 718 b 518 82 886 213 754 82 z "},"P":{"ha":878,"x_min":0,"x_max":0,"o":"m 182 0 l 182 301 l 511 301 b 854 617 713 301 854 417 b 511 931 854 815 713 931 l 83 931 l 83 0 z m 503 840 b 754 617 667 840 754 772 b 503 392 754 458 667 392 l 182 392 l 182 840 z "},"Q":{"ha":1039,"x_min":0,"x_max":0,"o":"m 518 -14 l 522 -14 l 649 -196 l 768 -196 l 626 -4 b 990 465 846 39 990 214 b 518 944 990 756 797 944 b 49 465 242 944 49 756 b 518 -14 49 175 242 -14 z m 518 82 b 153 465 283 82 153 213 b 518 849 153 718 283 849 b 886 465 754 849 886 718 b 518 82 886 213 754 82 z "},"R":{"ha":911,"x_min":0,"x_max":0,"o":"m 182 0 l 182 381 l 382 381 b 601 269 506 381 554 347 l 767 0 l 881 0 l 706 285 b 578 396 674 339 639 379 l 578 403 b 865 661 750 407 865 504 b 539 931 865 832 733 931 l 83 931 l 83 0 z m 182 840 l 538 840 b 763 650 685 840 763 782 b 538 460 763 518 685 460 l 182 460 z "},"Ŕ":{"ha":911,"x_min":0,"x_max":0,"o":"m 528 1014 l 733 1186 l 597 1186 l 424 1014 z m 182 0 l 182 381 l 382 381 b 601 269 506 381 554 347 l 767 0 l 881 0 l 706 285 b 578 396 674 339 639 379 l 578 403 b 865 661 750 407 865 504 b 539 931 865 832 733 931 l 83 931 l 83 0 z m 182 840 l 538 840 b 763 650 685 840 763 782 b 538 460 763 518 685 460 l 182 460 z "},"Ŗ":{"ha":911,"x_min":0,"x_max":0,"o":"m 182 0 l 182 381 l 382 381 b 601 269 506 381 554 347 l 767 0 l 881 0 l 706 285 b 578 396 674 339 639 379 l 578 403 b 865 661 750 407 865 504 b 539 931 865 832 733 931 l 83 931 l 83 0 z m 182 840 l 538 840 b 763 650 685 840 763 782 b 538 460 763 518 685 460 l 182 460 z m 392 -278 l 542 -97 l 413 -97 l 289 -278 z "},"Ř":{"ha":911,"x_min":0,"x_max":0,"o":"m 604 1194 l 479 1069 l 471 1069 l 346 1194 l 239 1194 l 421 1014 l 529 1014 l 710 1194 z m 182 0 l 182 381 l 382 381 b 601 269 506 381 554 347 l 767 0 l 881 0 l 706 285 b 578 396 674 339 639 379 l 578 403 b 865 661 750 407 865 504 b 539 931 865 832 733 931 l 83 931 l 83 0 z m 182 840 l 538 840 b 763 650 685 840 763 782 b 538 460 763 518 685 460 l 182 460 z "},"S":{"ha":860,"x_min":0,"x_max":0,"o":"m 444 -14 b 815 244 703 -14 815 111 b 542 492 815 389 708 460 l 346 531 b 147 697 208 560 147 592 b 415 851 147 799 231 851 b 701 644 618 851 701 779 l 701 628 l 801 628 l 801 636 b 422 944 801 806 685 944 b 47 690 156 944 47 817 b 319 443 47 536 168 472 l 517 406 b 715 236 653 378 715 340 b 444 79 715 131 631 79 b 143 285 226 79 143 151 l 143 303 l 43 303 l 43 294 b 444 -14 43 117 171 -14 z "},"Ś":{"ha":860,"x_min":0,"x_max":0,"o":"m 478 1014 l 683 1186 l 547 1186 l 375 1014 z m 444 -14 b 815 244 703 -14 815 111 b 542 492 815 389 708 460 l 346 531 b 147 697 208 560 147 592 b 415 851 147 799 231 851 b 701 644 618 851 701 779 l 701 628 l 801 628 l 801 636 b 422 944 801 806 685 944 b 47 690 156 944 47 817 b 319 443 47 536 168 472 l 517 406 b 715 236 653 378 715 340 b 444 79 715 131 631 79 b 143 285 226 79 143 151 l 143 303 l 43 303 l 43 294 b 444 -14 43 117 171 -14 z "},"Ŝ":{"ha":860,"x_min":0,"x_max":0,"o":"m 294 1014 l 421 1139 l 429 1139 l 554 1014 l 660 1014 l 479 1194 l 369 1194 l 189 1014 z m 444 -14 b 815 244 703 -14 815 111 b 542 492 815 389 708 460 l 346 531 b 147 697 208 560 147 592 b 415 851 147 799 231 851 b 701 644 618 851 701 779 l 701 628 l 801 628 l 801 636 b 422 944 801 806 685 944 b 47 690 156 944 47 817 b 319 443 47 536 168 472 l 517 406 b 715 236 653 378 715 340 b 444 79 715 131 631 79 b 143 285 226 79 143 151 l 143 303 l 43 303 l 43 294 b 444 -14 43 117 171 -14 z "},"Ş":{"ha":860,"x_min":0,"x_max":0,"o":"m 444 -14 b 815 244 703 -14 815 111 b 542 492 815 389 708 460 l 346 531 b 147 697 208 560 147 592 b 415 851 147 799 231 851 b 701 644 618 851 701 779 l 701 628 l 801 628 l 801 636 b 422 944 801 806 685 944 b 47 690 156 944 47 817 b 319 443 47 536 168 472 l 517 406 b 715 236 653 378 715 340 b 444 79 715 131 631 79 b 143 285 226 79 143 151 l 143 303 l 43 303 l 43 294 b 381 -11 43 131 151 8 l 381 -142 l 478 -142 b 526 -182 504 -142 526 -147 b 478 -221 526 -214 504 -221 l 367 -221 l 367 -283 l 478 -283 b 594 -181 551 -283 594 -244 b 478 -79 594 -119 551 -79 l 443 -79 l 443 -14 z "},"Š":{"ha":860,"x_min":0,"x_max":0,"o":"m 554 1194 l 429 1069 l 421 1069 l 296 1194 l 189 1194 l 371 1014 l 479 1014 l 660 1194 z m 444 -14 b 815 244 703 -14 815 111 b 542 492 815 389 708 460 l 346 531 b 147 697 208 560 147 592 b 415 851 147 799 231 851 b 701 644 618 851 701 779 l 701 628 l 801 628 l 801 636 b 422 944 801 806 685 944 b 47 690 156 944 47 817 b 319 443 47 536 168 472 l 517 406 b 715 236 653 378 715 340 b 444 79 715 131 631 79 b 143 285 226 79 143 151 l 143 303 l 43 303 l 43 294 b 444 -14 43 117 171 -14 z "},"Ș":{"ha":860,"x_min":0,"x_max":0,"o":"m 444 -14 b 815 244 703 -14 815 111 b 542 492 815 389 708 460 l 346 531 b 147 697 208 560 147 592 b 415 851 147 799 231 851 b 701 644 618 851 701 779 l 701 628 l 801 628 l 801 636 b 422 944 801 806 685 944 b 47 690 156 944 47 817 b 319 443 47 536 168 472 l 517 406 b 715 236 653 378 715 340 b 444 79 715 131 631 79 b 143 285 226 79 143 151 l 143 303 l 43 303 l 43 294 b 444 -14 43 117 171 -14 z m 386 -278 l 536 -97 l 407 -97 l 285 -278 z "},"T":{"ha":894,"x_min":0,"x_max":0,"o":"m 497 0 l 497 840 l 879 840 l 879 931 l 15 931 l 15 840 l 399 840 l 399 0 z "},"Ț":{"ha":894,"x_min":0,"x_max":0,"o":"m 497 0 l 497 840 l 879 840 l 879 931 l 15 931 l 15 840 l 399 840 l 399 0 z m 379 -278 l 529 -97 l 400 -97 l 278 -278 z "},"Ť":{"ha":894,"x_min":0,"x_max":0,"o":"m 578 1194 l 451 1069 l 443 1069 l 318 1194 l 213 1194 l 393 1014 l 503 1014 l 683 1194 z m 497 0 l 497 840 l 879 840 l 879 931 l 15 931 l 15 840 l 399 840 l 399 0 z "},"U":{"ha":992,"x_min":0,"x_max":0,"o":"m 496 -14 b 915 385 754 -14 915 129 l 915 931 l 817 931 l 817 389 b 496 83 817 176 713 83 b 175 389 279 83 175 176 l 175 931 l 76 931 l 76 385 b 496 -14 76 129 238 -14 z "},"Ù":{"ha":992,"x_min":0,"x_max":0,"o":"m 546 1014 l 372 1186 l 236 1186 l 442 1014 z m 496 -14 b 915 385 754 -14 915 129 l 915 931 l 817 931 l 817 389 b 496 83 817 176 713 83 b 175 389 279 83 175 176 l 175 931 l 76 931 l 76 385 b 496 -14 76 129 238 -14 z "},"Ú":{"ha":992,"x_min":0,"x_max":0,"o":"m 549 1014 l 754 1186 l 619 1186 l 446 1014 z m 496 -14 b 915 385 754 -14 915 129 l 915 931 l 817 931 l 817 389 b 496 83 817 176 713 83 b 175 389 279 83 175 176 l 175 931 l 76 931 l 76 385 b 496 -14 76 129 238 -14 z "},"Û":{"ha":992,"x_min":0,"x_max":0,"o":"m 367 1014 l 492 1139 l 500 1139 l 625 1014 l 731 1014 l 550 1194 l 442 1194 l 261 1014 z m 496 -14 b 915 385 754 -14 915 129 l 915 931 l 817 931 l 817 389 b 496 83 817 176 713 83 b 175 389 279 83 175 176 l 175 931 l 76 931 l 76 385 b 496 -14 76 129 238 -14 z "},"Ü":{"ha":992,"x_min":0,"x_max":0,"o":"m 658 1014 l 658 1178 l 563 1178 l 563 1014 z m 429 1014 l 429 1178 l 333 1178 l 333 1014 z m 496 -14 b 915 385 754 -14 915 129 l 915 931 l 817 931 l 817 389 b 496 83 817 176 713 83 b 175 389 279 83 175 176 l 175 931 l 76 931 l 76 385 b 496 -14 76 129 238 -14 z "},"Ũ":{"ha":992,"x_min":0,"x_max":0,"o":"m 364 1039 l 364 1076 b 404 1126 364 1114 379 1126 b 468 1097 428 1126 449 1114 l 503 1076 b 606 1035 532 1054 564 1035 b 697 1146 667 1035 697 1081 l 697 1194 l 629 1194 l 629 1160 b 588 1107 629 1118 610 1107 b 521 1136 563 1107 543 1119 l 492 1157 b 392 1197 460 1179 429 1197 b 294 1088 318 1197 294 1149 l 294 1039 z m 496 -14 b 915 385 754 -14 915 129 l 915 931 l 817 931 l 817 389 b 496 83 817 176 713 83 b 175 389 279 83 175 176 l 175 931 l 76 931 l 76 385 b 496 -14 76 129 238 -14 z "},"Ū":{"ha":992,"x_min":0,"x_max":0,"o":"m 683 1069 l 683 1142 l 308 1142 l 308 1069 z m 496 -14 b 915 385 754 -14 915 129 l 915 931 l 817 931 l 817 389 b 496 83 817 176 713 83 b 175 389 279 83 175 176 l 175 931 l 76 931 l 76 385 b 496 -14 76 129 238 -14 z "},"Ŭ":{"ha":992,"x_min":0,"x_max":0,"o":"m 496 1000 b 676 1154 604 1000 676 1060 l 676 1168 l 601 1168 l 601 1154 b 496 1067 601 1097 575 1067 b 390 1154 419 1067 390 1097 l 390 1168 l 315 1168 l 315 1154 b 496 1000 315 1060 388 1000 z m 496 -14 b 915 385 754 -14 915 129 l 915 931 l 817 931 l 817 389 b 496 83 817 176 713 83 b 175 389 279 83 175 176 l 175 931 l 76 931 l 76 385 b 496 -14 76 129 238 -14 z "},"Ů":{"ha":992,"x_min":0,"x_max":0,"o":"m 496 978 b 642 1107 583 978 642 1029 b 496 1236 642 1185 583 1236 b 350 1107 408 1236 350 1185 b 496 978 350 1029 408 978 z m 496 1032 b 410 1107 438 1032 410 1057 b 496 1182 410 1157 438 1182 b 582 1107 554 1182 582 1157 b 496 1032 582 1057 554 1032 z m 496 -14 b 915 385 754 -14 915 129 l 915 931 l 817 931 l 817 389 b 496 83 817 176 713 83 b 175 389 279 83 175 176 l 175 931 l 76 931 l 76 385 b 496 -14 76 129 238 -14 z "},"Ű":{"ha":992,"x_min":0,"x_max":0,"o":"m 638 1014 l 806 1186 l 682 1186 l 543 1014 z m 408 1014 l 576 1186 l 453 1186 l 314 1014 z m 496 -14 b 915 385 754 -14 915 129 l 915 931 l 817 931 l 817 389 b 496 83 817 176 713 83 b 175 389 279 83 175 176 l 175 931 l 76 931 l 76 385 b 496 -14 76 129 238 -14 z "},"Ų":{"ha":992,"x_min":0,"x_max":0,"o":"m 496 -14 b 510 -14 500 -14 506 -14 l 478 -50 b 417 -165 447 -83 417 -115 b 544 -260 417 -225 461 -260 l 644 -260 l 644 -192 l 560 -192 b 497 -144 514 -192 497 -172 b 532 -75 497 -122 510 -103 l 585 -8 b 915 385 790 22 915 160 l 915 931 l 817 931 l 817 389 b 496 83 817 176 713 83 b 175 389 279 83 175 176 l 175 931 l 76 931 l 76 385 b 496 -14 76 129 238 -14 z "},"V":{"ha":949,"x_min":0,"x_max":0,"o":"m 543 0 l 953 931 l 838 931 l 479 100 l 472 100 l 113 931 l -4 931 l 406 0 z "},"W":{"ha":1431,"x_min":0,"x_max":0,"o":"m 439 0 l 644 606 l 710 822 l 719 822 l 793 606 l 1019 0 l 1167 0 l 1407 931 l 1299 931 l 1136 289 l 1093 99 l 1086 99 l 1024 289 l 785 931 l 646 931 l 429 289 l 374 99 l 365 99 l 317 289 l 132 931 l 22 931 l 292 0 z "},"Ŵ":{"ha":1431,"x_min":0,"x_max":0,"o":"m 586 1014 l 711 1139 l 719 1139 l 844 1014 l 951 1014 l 769 1194 l 661 1194 l 481 1014 z m 439 0 l 644 606 l 710 822 l 719 822 l 793 606 l 1019 0 l 1167 0 l 1407 931 l 1299 931 l 1136 289 l 1093 99 l 1086 99 l 1024 289 l 785 931 l 646 931 l 429 289 l 374 99 l 365 99 l 317 289 l 132 931 l 22 931 l 292 0 z "},"Ẁ":{"ha":1431,"x_min":0,"x_max":0,"o":"m 767 1014 l 593 1186 l 457 1186 l 663 1014 z m 439 0 l 644 606 l 710 822 l 719 822 l 793 606 l 1019 0 l 1167 0 l 1407 931 l 1299 931 l 1136 289 l 1093 99 l 1086 99 l 1024 289 l 785 931 l 646 931 l 429 289 l 374 99 l 365 99 l 317 289 l 132 931 l 22 931 l 292 0 z "},"Ẃ":{"ha":1431,"x_min":0,"x_max":0,"o":"m 769 1014 l 975 1186 l 839 1186 l 665 1014 z m 439 0 l 644 606 l 710 822 l 719 822 l 793 606 l 1019 0 l 1167 0 l 1407 931 l 1299 931 l 1136 289 l 1093 99 l 1086 99 l 1024 289 l 785 931 l 646 931 l 429 289 l 374 99 l 365 99 l 317 289 l 132 931 l 22 931 l 292 0 z "},"Ẅ":{"ha":1431,"x_min":0,"x_max":0,"o":"m 878 1014 l 878 1178 l 783 1178 l 783 1014 z m 649 1014 l 649 1178 l 554 1178 l 554 1014 z m 439 0 l 644 606 l 710 822 l 719 822 l 793 606 l 1019 0 l 1167 0 l 1407 931 l 1299 931 l 1136 289 l 1093 99 l 1086 99 l 1024 289 l 785 931 l 646 931 l 429 289 l 374 99 l 365 99 l 317 289 l 132 931 l 22 931 l 292 0 z "},"X":{"ha":947,"x_min":0,"x_max":0,"o":"m 133 0 l 469 406 l 478 406 l 814 0 l 942 0 l 556 465 l 556 472 l 942 931 l 814 931 l 479 533 l 472 533 l 133 931 l 7 931 l 392 474 l 392 465 l 7 0 z "},"Y":{"ha":900,"x_min":0,"x_max":0,"o":"m 499 0 l 499 331 l 906 931 l 785 931 l 531 551 l 456 438 l 447 438 l 371 551 l 115 931 l -6 931 l 399 331 l 399 0 z "},"Ý":{"ha":900,"x_min":0,"x_max":0,"o":"m 503 1014 l 708 1186 l 574 1186 l 400 1014 z m 499 0 l 499 331 l 906 931 l 785 931 l 531 551 l 456 438 l 447 438 l 371 551 l 115 931 l -6 931 l 399 331 l 399 0 z "},"Ŷ":{"ha":900,"x_min":0,"x_max":0,"o":"m 319 1014 l 446 1139 l 454 1139 l 579 1014 l 685 1014 l 504 1194 l 396 1194 l 215 1014 z m 499 0 l 499 331 l 906 931 l 785 931 l 531 551 l 456 438 l 447 438 l 371 551 l 115 931 l -6 931 l 399 331 l 399 0 z "},"Ÿ":{"ha":900,"x_min":0,"x_max":0,"o":"m 613 1014 l 613 1178 l 517 1178 l 517 1014 z m 383 1014 l 383 1178 l 288 1178 l 288 1014 z m 499 0 l 499 331 l 906 931 l 785 931 l 531 551 l 456 438 l 447 438 l 371 551 l 115 931 l -6 931 l 399 331 l 399 0 z "},"Ỳ":{"ha":900,"x_min":0,"x_max":0,"o":"m 500 1014 l 326 1186 l 190 1186 l 396 1014 z m 499 0 l 499 331 l 906 931 l 785 931 l 531 551 l 456 438 l 447 438 l 371 551 l 115 931 l -6 931 l 399 331 l 399 0 z "},"Z":{"ha":918,"x_min":0,"x_max":0,"o":"m 868 0 l 868 90 l 188 90 l 188 97 l 851 840 l 851 931 l 72 931 l 72 840 l 707 840 l 707 833 l 50 90 l 50 0 z "},"Ź":{"ha":918,"x_min":0,"x_max":0,"o":"m 514 1014 l 719 1186 l 583 1186 l 410 1014 z m 868 0 l 868 90 l 188 90 l 188 97 l 851 840 l 851 931 l 72 931 l 72 840 l 707 840 l 707 833 l 50 90 l 50 0 z "},"Ż":{"ha":918,"x_min":0,"x_max":0,"o":"m 510 1014 l 510 1178 l 411 1178 l 411 1014 z m 868 0 l 868 90 l 188 90 l 188 97 l 851 840 l 851 931 l 72 931 l 72 840 l 707 840 l 707 833 l 50 90 l 50 0 z "},"Ž":{"ha":918,"x_min":0,"x_max":0,"o":"m 590 1194 l 464 1069 l 456 1069 l 331 1194 l 225 1194 l 406 1014 l 515 1014 l 696 1194 z m 868 0 l 868 90 l 188 90 l 188 97 l 851 840 l 851 931 l 72 931 l 72 840 l 707 840 l 707 833 l 50 90 l 50 0 z "},"Æ":{"ha":1521,"x_min":0,"x_max":0,"o":"m 118 0 l 331 274 l 760 274 l 760 0 l 1467 0 l 1467 90 l 858 90 l 858 424 l 1446 424 l 1446 513 l 858 513 l 858 840 l 1467 840 l 1467 931 l 715 931 l -3 0 z m 753 819 l 760 819 l 760 363 l 399 363 z "},"Ǽ":{"ha":1521,"x_min":0,"x_max":0,"o":"m 1167 1014 l 1372 1186 l 1236 1186 l 1063 1014 z m 118 0 l 331 274 l 760 274 l 760 0 l 1467 0 l 1467 90 l 858 90 l 858 424 l 1446 424 l 1446 513 l 858 513 l 858 840 l 1467 840 l 1467 931 l 715 931 l -3 0 z m 753 819 l 760 819 l 760 363 l 399 363 z "},"Ð":{"ha":1063,"x_min":0,"x_max":0,"o":"m 557 0 b 1014 465 838 0 1014 181 b 557 931 1014 750 838 931 l 154 931 l 154 510 l 14 510 l 14 421 l 154 421 l 154 0 z m 579 421 l 579 510 l 253 510 l 253 840 l 557 840 b 910 465 794 840 910 718 b 557 90 910 213 794 90 l 253 90 l 253 421 z "},"Ø":{"ha":1039,"x_min":0,"x_max":0,"o":"m 518 -14 b 990 465 797 -14 990 175 b 875 797 990 601 949 714 l 974 903 l 919 956 l 819 849 b 518 944 740 910 638 944 b 49 465 242 944 49 756 b 160 139 49 332 89 221 l 54 26 l 108 -26 l 214 86 b 518 -14 293 22 397 -14 z m 153 465 b 518 849 153 718 283 849 b 757 781 617 849 697 826 l 224 208 b 153 465 176 271 153 357 z m 518 82 b 275 153 418 82 336 106 l 811 728 b 886 465 860 665 886 578 b 518 82 886 213 754 82 z "},"Ǿ":{"ha":1039,"x_min":0,"x_max":0,"o":"m 572 1014 l 778 1186 l 642 1186 l 469 1014 z m 518 -14 b 990 465 797 -14 990 175 b 875 797 990 601 949 714 l 974 903 l 919 956 l 819 849 b 518 944 740 910 638 944 b 49 465 242 944 49 756 b 160 139 49 332 89 221 l 54 26 l 108 -26 l 214 86 b 518 -14 293 22 397 -14 z m 153 465 b 518 849 153 718 283 849 b 757 781 617 849 697 826 l 224 208 b 153 465 176 271 153 357 z m 518 82 b 275 153 418 82 336 106 l 811 728 b 886 465 860 665 886 578 b 518 82 886 213 754 82 z "},"Þ":{"ha":882,"x_min":0,"x_max":0,"o":"m 182 0 l 182 150 l 514 150 b 857 465 715 150 857 265 b 514 781 857 665 715 781 l 182 781 l 182 931 l 83 931 l 83 0 z m 507 692 b 758 465 671 692 758 622 b 507 240 758 307 671 240 l 182 240 l 182 692 z "},"Đ":{"ha":1063,"x_min":0,"x_max":0,"o":"m 557 0 b 1014 465 838 0 1014 181 b 557 931 1014 750 838 931 l 154 931 l 154 510 l 14 510 l 14 421 l 154 421 l 154 0 z m 579 421 l 579 510 l 253 510 l 253 840 l 557 840 b 910 465 794 840 910 718 b 557 90 910 213 794 90 l 253 90 l 253 421 z "},"Ħ":{"ha":963,"x_min":0,"x_max":0,"o":"m 182 0 l 182 424 l 781 424 l 781 0 l 879 0 l 879 704 l 1007 704 l 1007 793 l 879 793 l 879 931 l 781 931 l 781 793 l 182 793 l 182 931 l 83 931 l 83 793 l -46 793 l -46 704 l 83 704 l 83 0 z m 182 514 l 182 704 l 781 704 l 781 514 z "},"Ĳ":{"ha":1119,"x_min":0,"x_max":0,"o":"m 182 0 l 182 931 l 83 931 l 83 0 z m 671 -14 b 1043 332 939 -14 1043 136 l 1043 931 l 940 931 l 940 326 b 671 83 940 167 867 83 b 401 331 474 83 401 167 l 401 382 l 299 382 l 299 335 b 671 -14 299 138 404 -14 z "},"Ŀ":{"ha":800,"x_min":0,"x_max":0,"o":"m 182 1014 l 182 1178 l 83 1178 l 83 1014 z m 772 0 l 772 90 l 182 90 l 182 931 l 83 931 l 83 0 z "},"Ł":{"ha":871,"x_min":0,"x_max":0,"o":"m 843 0 l 843 90 l 253 90 l 253 482 l 588 614 l 588 708 l 253 576 l 253 931 l 154 931 l 154 539 l 14 483 l 14 389 l 154 444 l 154 0 z "},"Ŋ":{"ha":978,"x_min":0,"x_max":0,"o":"m 701 -236 b 896 -49 819 -236 896 -194 l 896 931 l 797 931 l 797 326 l 800 143 l 792 143 l 656 329 l 192 931 l 83 931 l 83 0 l 182 0 l 182 592 l 179 782 l 186 782 l 329 590 l 792 -6 l 792 -74 b 706 -144 792 -132 772 -144 l 632 -144 l 632 -236 z "},"Œ":{"ha":1496,"x_min":0,"x_max":0,"o":"m 1442 0 l 1442 90 l 833 90 l 833 424 l 1421 424 l 1421 513 l 833 513 l 833 840 l 1442 840 l 1442 931 l 522 931 b 49 465 222 931 49 750 b 522 0 49 181 222 0 z m 522 90 b 153 465 268 90 153 213 b 522 840 153 718 268 840 l 735 840 l 735 90 z "},"Ŧ":{"ha":894,"x_min":0,"x_max":0,"o":"m 497 0 l 497 463 l 731 463 l 731 553 l 497 553 l 497 840 l 879 840 l 879 931 l 15 931 l 15 840 l 399 840 l 399 553 l 165 553 l 165 463 l 399 463 l 399 0 z "},"a":{"ha":769,"x_min":0,"x_max":0,"o":"m 274 -14 b 594 185 433 -14 554 58 l 601 185 l 601 0 l 690 0 l 690 429 b 393 700 690 581 601 700 b 63 438 182 700 63 582 l 63 432 l 161 432 l 161 438 b 386 611 161 558 239 611 b 594 425 536 611 594 558 l 594 372 l 268 336 b 47 161 140 322 47 274 b 274 -14 47 50 139 -14 z m 146 168 b 299 274 146 239 196 264 l 594 307 l 594 301 b 296 63 594 136 463 63 b 146 168 192 63 146 99 z "},"à":{"ha":769,"x_min":0,"x_max":0,"o":"m 446 778 l 272 958 l 138 958 l 344 778 z m 274 -14 b 594 185 433 -14 554 58 l 601 185 l 601 0 l 690 0 l 690 429 b 393 700 690 581 601 700 b 63 438 182 700 63 582 l 63 432 l 161 432 l 161 438 b 386 611 161 558 239 611 b 594 425 536 611 594 558 l 594 372 l 268 336 b 47 161 140 322 47 274 b 274 -14 47 50 139 -14 z m 146 168 b 299 274 146 239 196 264 l 594 307 l 594 301 b 296 63 594 136 463 63 b 146 168 192 63 146 99 z "},"á":{"ha":769,"x_min":0,"x_max":0,"o":"m 442 778 l 649 958 l 514 958 l 340 778 z m 274 -14 b 594 185 433 -14 554 58 l 601 185 l 601 0 l 690 0 l 690 429 b 393 700 690 581 601 700 b 63 438 182 700 63 582 l 63 432 l 161 432 l 161 438 b 386 611 161 558 239 611 b 594 425 536 611 594 558 l 594 372 l 268 336 b 47 161 140 322 47 274 b 274 -14 47 50 139 -14 z m 146 168 b 299 274 146 239 196 264 l 594 307 l 594 301 b 296 63 594 136 463 63 b 146 168 192 63 146 99 z "},"â":{"ha":769,"x_min":0,"x_max":0,"o":"m 261 778 l 388 903 l 396 903 l 521 778 l 626 778 l 446 958 l 336 958 l 156 778 z m 274 -14 b 594 185 433 -14 554 58 l 601 185 l 601 0 l 690 0 l 690 429 b 393 700 690 581 601 700 b 63 438 182 700 63 582 l 63 432 l 161 432 l 161 438 b 386 611 161 558 239 611 b 594 425 536 611 594 558 l 594 372 l 268 336 b 47 161 140 322 47 274 b 274 -14 47 50 139 -14 z m 146 168 b 299 274 146 239 196 264 l 594 307 l 594 301 b 296 63 594 136 463 63 b 146 168 192 63 146 99 z "},"ã":{"ha":769,"x_min":0,"x_max":0,"o":"m 258 803 l 258 842 b 300 890 258 878 276 890 b 363 861 324 890 342 878 l 397 840 b 500 799 428 818 458 799 b 592 910 561 799 592 844 l 592 958 l 524 958 l 524 924 b 482 871 524 882 504 871 b 417 900 457 871 438 883 l 386 921 b 286 961 354 943 325 961 b 189 853 214 961 189 913 l 189 803 z m 274 -14 b 594 185 433 -14 554 58 l 601 185 l 601 0 l 690 0 l 690 429 b 393 700 690 581 601 700 b 63 438 182 700 63 582 l 63 432 l 161 432 l 161 438 b 386 611 161 558 239 611 b 594 425 536 611 594 558 l 594 372 l 268 336 b 47 161 140 322 47 274 b 274 -14 47 50 139 -14 z m 146 168 b 299 274 146 239 196 264 l 594 307 l 594 301 b 296 63 594 136 463 63 b 146 168 192 63 146 99 z "},"ä":{"ha":769,"x_min":0,"x_max":0,"o":"m 553 778 l 553 942 l 458 942 l 458 778 z m 324 778 l 324 942 l 229 942 l 229 778 z m 274 -14 b 594 185 433 -14 554 58 l 601 185 l 601 0 l 690 0 l 690 429 b 393 700 690 581 601 700 b 63 438 182 700 63 582 l 63 432 l 161 432 l 161 438 b 386 611 161 558 239 611 b 594 425 536 611 594 558 l 594 372 l 268 336 b 47 161 140 322 47 274 b 274 -14 47 50 139 -14 z m 146 168 b 299 274 146 239 196 264 l 594 307 l 594 301 b 296 63 594 136 463 63 b 146 168 192 63 146 99 z "},"å":{"ha":769,"x_min":0,"x_max":0,"o":"m 392 756 b 529 878 474 756 529 804 b 392 1000 529 951 474 1000 b 253 878 308 1000 253 951 b 392 756 253 804 308 756 z m 392 804 b 307 878 333 804 307 831 b 392 951 307 925 333 951 b 476 878 450 951 476 925 b 392 804 476 831 450 804 z m 274 -14 b 594 185 433 -14 554 58 l 601 185 l 601 0 l 690 0 l 690 429 b 393 700 690 581 601 700 b 63 438 182 700 63 582 l 63 432 l 161 432 l 161 438 b 386 611 161 558 239 611 b 594 425 536 611 594 558 l 594 372 l 268 336 b 47 161 140 322 47 274 b 274 -14 47 50 139 -14 z m 146 168 b 299 274 146 239 196 264 l 594 307 l 594 301 b 296 63 594 136 463 63 b 146 168 192 63 146 99 z "},"ā":{"ha":769,"x_min":0,"x_max":0,"o":"m 579 832 l 579 904 l 204 904 l 204 832 z m 274 -14 b 594 185 433 -14 554 58 l 601 185 l 601 0 l 690 0 l 690 429 b 393 700 690 581 601 700 b 63 438 182 700 63 582 l 63 432 l 161 432 l 161 438 b 386 611 161 558 239 611 b 594 425 536 611 594 558 l 594 372 l 268 336 b 47 161 140 322 47 274 b 274 -14 47 50 139 -14 z m 146 168 b 299 274 146 239 196 264 l 594 307 l 594 301 b 296 63 594 136 463 63 b 146 168 192 63 146 99 z "},"ă":{"ha":769,"x_min":0,"x_max":0,"o":"m 392 764 b 572 918 499 764 572 824 l 572 950 l 497 950 l 497 918 b 392 831 497 860 471 831 b 286 918 314 831 286 860 l 286 950 l 211 950 l 211 918 b 392 764 211 824 283 764 z m 274 -14 b 594 185 433 -14 554 58 l 601 185 l 601 0 l 690 0 l 690 429 b 393 700 690 581 601 700 b 63 438 182 700 63 582 l 63 432 l 161 432 l 161 438 b 386 611 161 558 239 611 b 594 425 536 611 594 558 l 594 372 l 268 336 b 47 161 140 322 47 274 b 274 -14 47 50 139 -14 z m 146 168 b 299 274 146 239 196 264 l 594 307 l 594 301 b 296 63 594 136 463 63 b 146 168 192 63 146 99 z "},"ą":{"ha":769,"x_min":0,"x_max":0,"o":"m 274 -14 b 594 185 433 -14 554 58 l 601 185 l 601 0 l 622 0 l 578 -50 b 517 -165 549 -83 517 -115 b 646 -260 517 -225 561 -260 l 746 -260 l 746 -192 l 660 -192 b 597 -144 615 -192 597 -172 b 632 -75 597 -122 610 -103 l 690 0 l 690 429 b 393 700 690 581 601 700 b 63 438 182 700 63 582 l 63 432 l 161 432 l 161 438 b 386 611 161 558 239 611 b 594 425 536 611 594 558 l 594 372 l 268 336 b 47 161 140 322 47 274 b 274 -14 47 50 139 -14 z m 146 168 b 299 274 146 239 196 264 l 594 307 l 594 301 b 296 63 594 136 463 63 b 146 168 192 63 146 99 z "},"b":{"ha":853,"x_min":0,"x_max":0,"o":"m 172 0 l 172 203 l 179 203 b 474 -14 211 65 321 -14 b 815 343 697 -14 815 135 b 482 700 815 551 697 700 b 189 494 317 700 218 613 l 182 494 l 182 931 l 83 931 l 83 0 z m 182 332 l 182 344 b 453 608 182 514 279 608 b 715 343 611 608 715 542 b 450 76 715 144 614 76 b 182 332 285 76 182 169 z "},"c":{"ha":801,"x_min":0,"x_max":0,"o":"m 411 -14 b 753 265 603 -14 753 100 l 753 276 l 656 276 l 656 268 b 410 76 656 146 567 76 b 147 343 226 76 147 175 b 410 610 147 511 226 610 b 656 418 567 610 656 540 l 656 410 l 753 410 l 753 421 b 411 700 753 586 603 700 b 49 343 192 700 49 551 b 411 -14 49 135 192 -14 z "},"ç":{"ha":801,"x_min":0,"x_max":0,"o":"m 493 -283 b 610 -181 567 -283 610 -244 b 493 -79 610 -119 567 -79 l 458 -79 l 458 -11 b 753 265 626 6 753 114 l 753 276 l 656 276 l 656 268 b 410 76 656 146 567 76 b 147 343 226 76 147 175 b 410 610 147 511 226 610 b 656 418 567 610 656 540 l 656 410 l 753 410 l 753 421 b 411 700 753 586 603 700 b 49 343 192 700 49 551 b 396 -14 49 140 185 -7 l 396 -142 l 493 -142 b 542 -182 519 -142 542 -147 b 493 -221 542 -214 519 -221 l 383 -221 l 383 -283 z "},"ć":{"ha":801,"x_min":0,"x_max":0,"o":"m 474 778 l 681 958 l 546 958 l 372 778 z m 411 -14 b 753 265 603 -14 753 100 l 753 276 l 656 276 l 656 268 b 410 76 656 146 567 76 b 147 343 226 76 147 175 b 410 610 147 511 226 610 b 656 418 567 610 656 540 l 656 410 l 753 410 l 753 421 b 411 700 753 586 603 700 b 49 343 192 700 49 551 b 411 -14 49 135 192 -14 z "},"ċ":{"ha":801,"x_min":0,"x_max":0,"o":"m 474 778 l 474 942 l 375 942 l 375 778 z m 411 -14 b 753 265 603 -14 753 100 l 753 276 l 656 276 l 656 268 b 410 76 656 146 567 76 b 147 343 226 76 147 175 b 410 610 147 511 226 610 b 656 418 567 610 656 540 l 656 410 l 753 410 l 753 421 b 411 700 753 586 603 700 b 49 343 192 700 49 551 b 411 -14 49 135 192 -14 z "},"č":{"ha":801,"x_min":0,"x_max":0,"o":"m 478 778 l 658 958 l 550 958 l 428 833 l 419 833 l 297 958 l 189 958 l 369 778 z m 411 -14 b 753 265 603 -14 753 100 l 753 276 l 656 276 l 656 268 b 410 76 656 146 567 76 b 147 343 226 76 147 175 b 410 610 147 511 226 610 b 656 418 567 610 656 540 l 656 410 l 753 410 l 753 421 b 411 700 753 586 603 700 b 49 343 192 700 49 551 b 411 -14 49 135 192 -14 z "},"d":{"ha":853,"x_min":0,"x_max":0,"o":"m 379 -14 b 675 203 531 -14 642 65 l 681 203 l 681 0 l 771 0 l 771 931 l 672 931 l 672 494 l 665 494 b 371 700 635 613 533 700 b 38 343 160 700 38 551 b 379 -14 38 135 160 -14 z m 138 343 b 401 608 138 542 244 608 b 672 344 571 608 672 514 l 672 332 b 404 76 672 169 565 76 b 138 343 243 76 138 144 z "},"ď":{"ha":918,"x_min":0,"x_max":0,"o":"m 379 -14 b 675 203 531 -14 642 65 l 681 203 l 681 0 l 771 0 l 771 931 l 672 931 l 672 494 l 665 494 b 371 700 635 613 533 700 b 38 343 160 700 38 551 b 379 -14 38 135 160 -14 z m 858 653 b 936 732 907 653 936 678 l 936 931 l 839 931 l 839 760 l 882 760 l 882 729 b 857 704 882 708 874 704 l 836 704 l 836 653 z m 138 343 b 401 608 138 542 244 608 b 672 344 571 608 672 514 l 672 332 b 404 76 672 169 565 76 b 138 343 243 76 138 144 z "},"e":{"ha":800,"x_min":0,"x_max":0,"o":"m 410 -14 b 743 228 601 -14 743 85 l 743 238 l 644 238 l 644 228 b 408 68 644 128 569 68 b 142 315 226 68 147 161 l 746 315 b 753 379 750 333 753 354 b 408 700 753 583 610 700 b 49 343 188 700 49 551 b 410 -14 49 125 189 -14 z m 407 618 b 660 397 568 618 660 542 b 660 376 660 390 660 383 l 142 376 b 407 618 149 526 229 618 z "},"è":{"ha":800,"x_min":0,"x_max":0,"o":"m 454 778 l 281 958 l 147 958 l 354 778 z m 410 -14 b 743 228 601 -14 743 85 l 743 238 l 644 238 l 644 228 b 408 68 644 128 569 68 b 142 315 226 68 147 161 l 746 315 b 753 379 750 333 753 354 b 408 700 753 583 610 700 b 49 343 188 700 49 551 b 410 -14 49 125 189 -14 z m 407 618 b 660 397 568 618 660 542 b 660 376 660 390 660 383 l 142 376 b 407 618 149 526 229 618 z "},"é":{"ha":800,"x_min":0,"x_max":0,"o":"m 450 778 l 657 958 l 522 958 l 349 778 z m 410 -14 b 743 228 601 -14 743 85 l 743 238 l 644 238 l 644 228 b 408 68 644 128 569 68 b 142 315 226 68 147 161 l 746 315 b 753 379 750 333 753 354 b 408 700 753 583 610 700 b 49 343 188 700 49 551 b 410 -14 49 125 189 -14 z m 407 618 b 660 397 568 618 660 542 b 660 376 660 390 660 383 l 142 376 b 407 618 149 526 229 618 z "},"ê":{"ha":800,"x_min":0,"x_max":0,"o":"m 271 778 l 396 903 l 404 903 l 529 778 l 636 778 l 454 958 l 346 958 l 165 778 z m 410 -14 b 743 228 601 -14 743 85 l 743 238 l 644 238 l 644 228 b 408 68 644 128 569 68 b 142 315 226 68 147 161 l 746 315 b 753 379 750 333 753 354 b 408 700 753 583 610 700 b 49 343 188 700 49 551 b 410 -14 49 125 189 -14 z m 407 618 b 660 397 568 618 660 542 b 660 376 660 390 660 383 l 142 376 b 407 618 149 526 229 618 z "},"ë":{"ha":800,"x_min":0,"x_max":0,"o":"m 563 778 l 563 942 l 467 942 l 467 778 z m 333 778 l 333 942 l 239 942 l 239 778 z m 410 -14 b 743 228 601 -14 743 85 l 743 238 l 644 238 l 644 228 b 408 68 644 128 569 68 b 142 315 226 68 147 161 l 746 315 b 753 379 750 333 753 354 b 408 700 753 583 610 700 b 49 343 188 700 49 551 b 410 -14 49 125 189 -14 z m 407 618 b 660 397 568 618 660 542 b 660 376 660 390 660 383 l 142 376 b 407 618 149 526 229 618 z "},"ē":{"ha":800,"x_min":0,"x_max":0,"o":"m 588 832 l 588 904 l 213 904 l 213 832 z m 410 -14 b 743 228 601 -14 743 85 l 743 238 l 644 238 l 644 228 b 408 68 644 128 569 68 b 142 315 226 68 147 161 l 746 315 b 753 379 750 333 753 354 b 408 700 753 583 610 700 b 49 343 188 700 49 551 b 410 -14 49 125 189 -14 z m 407 618 b 660 397 568 618 660 542 b 660 376 660 390 660 383 l 142 376 b 407 618 149 526 229 618 z "},"ĕ":{"ha":800,"x_min":0,"x_max":0,"o":"m 400 764 b 581 918 508 764 581 824 l 581 950 l 506 950 l 506 918 b 400 831 506 860 479 831 b 294 918 324 831 294 860 l 294 950 l 219 950 l 219 918 b 400 764 219 824 293 764 z m 410 -14 b 743 228 601 -14 743 85 l 743 238 l 644 238 l 644 228 b 408 68 644 128 569 68 b 142 315 226 68 147 161 l 746 315 b 753 379 750 333 753 354 b 408 700 753 583 610 700 b 49 343 188 700 49 551 b 410 -14 49 125 189 -14 z m 407 618 b 660 397 568 618 660 542 b 660 376 660 390 660 383 l 142 376 b 407 618 149 526 229 618 z "},"ė":{"ha":800,"x_min":0,"x_max":0,"o":"m 450 778 l 450 942 l 351 942 l 351 778 z m 410 -14 b 743 228 601 -14 743 85 l 743 238 l 644 238 l 644 228 b 408 68 644 128 569 68 b 142 315 226 68 147 161 l 746 315 b 753 379 750 333 753 354 b 408 700 753 583 610 700 b 49 343 188 700 49 551 b 410 -14 49 125 189 -14 z m 407 618 b 660 397 568 618 660 542 b 660 376 660 390 660 383 l 142 376 b 407 618 149 526 229 618 z "},"ę":{"ha":800,"x_min":0,"x_max":0,"o":"m 410 -14 l 414 -14 l 382 -50 b 321 -165 353 -83 321 -115 b 450 -260 321 -225 365 -260 l 550 -260 l 550 -192 l 464 -192 b 401 -144 419 -192 401 -172 b 436 -75 401 -122 414 -103 l 488 -8 b 743 228 639 15 743 106 l 743 238 l 644 238 l 644 228 b 408 68 644 128 569 68 b 142 315 226 68 147 161 l 746 315 b 753 379 750 333 753 354 b 408 700 753 583 610 700 b 49 343 188 700 49 551 b 410 -14 49 125 189 -14 z m 407 618 b 660 397 568 618 660 542 b 660 376 660 390 660 383 l 142 376 b 407 618 149 526 229 618 z "},"ě":{"ha":800,"x_min":0,"x_max":0,"o":"m 454 778 l 636 958 l 528 958 l 404 833 l 396 833 l 274 958 l 165 958 l 346 778 z m 410 -14 b 743 228 601 -14 743 85 l 743 238 l 644 238 l 644 228 b 408 68 644 128 569 68 b 142 315 226 68 147 161 l 746 315 b 753 379 750 333 753 354 b 408 700 753 583 610 700 b 49 343 188 700 49 551 b 410 -14 49 125 189 -14 z m 407 618 b 660 397 568 618 660 542 b 660 376 660 390 660 383 l 142 376 b 407 618 149 526 229 618 z "},"f":{"ha":521,"x_min":0,"x_max":0,"o":"m 231 0 l 231 601 l 507 601 l 507 686 l 231 686 b 418 853 225 811 293 853 l 507 853 l 507 931 l 432 931 b 133 686 254 931 144 849 l 22 686 l 22 601 l 132 601 l 132 0 z "},"ﬀ":{"ha":1007,"x_min":0,"x_max":0,"o":"m 231 0 l 231 601 l 507 601 l 507 686 l 231 686 b 418 853 225 811 293 853 l 507 853 l 507 931 l 432 931 b 133 686 254 931 144 849 l 22 686 l 22 601 l 132 601 l 132 0 z m 718 0 l 718 601 l 993 601 l 993 686 l 718 686 b 904 853 713 811 779 853 l 993 853 l 993 931 l 919 931 b 619 686 742 931 632 849 l 508 686 l 508 601 l 618 601 l 618 0 z "},"ﬃ":{"ha":1271,"x_min":0,"x_max":0,"o":"m 231 0 l 231 601 l 507 601 l 507 686 l 231 686 b 418 853 225 811 293 853 l 507 853 l 507 931 l 432 931 b 133 686 254 931 144 849 l 22 686 l 22 601 l 132 601 l 132 0 z m 718 0 l 718 601 l 993 601 l 993 686 l 718 686 b 904 853 713 811 779 853 l 993 853 l 993 931 l 919 931 b 619 686 742 931 632 849 l 508 686 l 508 601 l 618 601 l 618 0 z m 1189 774 l 1189 931 l 1090 931 l 1090 774 z m 1189 0 l 1189 686 l 1090 686 l 1090 0 z "},"ﬄ":{"ha":1271,"x_min":0,"x_max":0,"o":"m 231 0 l 231 601 l 507 601 l 507 686 l 231 686 b 418 853 225 811 293 853 l 507 853 l 507 931 l 432 931 b 133 686 254 931 144 849 l 22 686 l 22 601 l 132 601 l 132 0 z m 718 0 l 718 601 l 993 601 l 993 686 l 718 686 b 904 853 713 811 779 853 l 993 853 l 993 931 l 919 931 b 619 686 742 931 632 849 l 508 686 l 508 601 l 618 601 l 618 0 z m 1189 0 l 1189 931 l 1090 931 l 1090 0 z "},"ﬁ":{"ha":785,"x_min":0,"x_max":0,"o":"m 231 0 l 231 601 l 507 601 l 507 686 l 231 686 b 418 853 225 811 293 853 l 507 853 l 507 931 l 432 931 b 133 686 254 931 144 849 l 22 686 l 22 601 l 132 601 l 132 0 z m 701 774 l 701 931 l 603 931 l 603 774 z m 701 0 l 701 686 l 603 686 l 603 0 z "},"ﬂ":{"ha":785,"x_min":0,"x_max":0,"o":"m 231 0 l 231 601 l 507 601 l 507 686 l 231 686 b 418 853 225 811 293 853 l 507 853 l 507 931 l 432 931 b 133 686 254 931 144 849 l 22 686 l 22 601 l 132 601 l 132 0 z m 701 0 l 701 931 l 603 931 l 603 0 z "},"g":{"ha":854,"x_min":0,"x_max":0,"o":"m 378 56 b 665 239 536 56 638 133 l 672 239 l 672 60 b 425 -165 672 -111 603 -165 b 192 3 272 -165 192 -118 l 93 3 b 421 -250 93 -157 235 -250 b 771 65 628 -250 771 -161 l 771 686 l 682 686 l 682 510 l 675 510 b 389 700 647 632 533 700 b 49 378 178 700 49 565 b 378 56 49 190 174 56 z m 147 378 b 411 613 147 553 257 613 b 672 397 569 613 672 532 l 672 374 b 404 143 672 228 574 143 b 147 378 256 143 147 203 z "},"ĝ":{"ha":854,"x_min":0,"x_max":0,"o":"m 286 778 l 413 903 l 421 903 l 546 778 l 651 778 l 471 958 l 363 958 l 182 778 z m 378 56 b 665 239 536 56 638 133 l 672 239 l 672 60 b 425 -165 672 -111 603 -165 b 192 3 272 -165 192 -118 l 93 3 b 421 -250 93 -157 235 -250 b 771 65 628 -250 771 -161 l 771 686 l 682 686 l 682 510 l 675 510 b 389 700 647 632 533 700 b 49 378 178 700 49 565 b 378 56 49 190 174 56 z m 147 378 b 411 613 147 553 257 613 b 672 397 569 613 672 532 l 672 374 b 404 143 672 228 574 143 b 147 378 256 143 147 203 z "},"ğ":{"ha":854,"x_min":0,"x_max":0,"o":"m 417 764 b 597 918 524 764 597 824 l 597 950 l 522 950 l 522 918 b 417 831 522 860 496 831 b 311 918 340 831 311 860 l 311 950 l 236 950 l 236 918 b 417 764 236 824 308 764 z m 378 56 b 665 239 536 56 638 133 l 672 239 l 672 60 b 425 -165 672 -111 603 -165 b 192 3 272 -165 192 -118 l 93 3 b 421 -250 93 -157 235 -250 b 771 65 628 -250 771 -161 l 771 686 l 682 686 l 682 510 l 675 510 b 389 700 647 632 533 700 b 49 378 178 700 49 565 b 378 56 49 190 174 56 z m 147 378 b 411 613 147 553 257 613 b 672 397 569 613 672 532 l 672 374 b 404 143 672 228 574 143 b 147 378 256 143 147 203 z "},"ġ":{"ha":854,"x_min":0,"x_max":0,"o":"m 465 778 l 465 942 l 367 942 l 367 778 z m 378 56 b 665 239 536 56 638 133 l 672 239 l 672 60 b 425 -165 672 -111 603 -165 b 192 3 272 -165 192 -118 l 93 3 b 421 -250 93 -157 235 -250 b 771 65 628 -250 771 -161 l 771 686 l 682 686 l 682 510 l 675 510 b 389 700 647 632 533 700 b 49 378 178 700 49 565 b 378 56 49 190 174 56 z m 147 378 b 411 613 147 553 257 613 b 672 397 569 613 672 532 l 672 374 b 404 143 672 228 574 143 b 147 378 256 143 147 203 z "},"ģ":{"ha":854,"x_min":0,"x_max":0,"o":"m 457 958 l 314 778 l 433 778 l 549 958 z m 378 56 b 665 239 536 56 638 133 l 672 239 l 672 60 b 425 -165 672 -111 603 -165 b 192 3 272 -165 192 -118 l 93 3 b 421 -250 93 -157 235 -250 b 771 65 628 -250 771 -161 l 771 686 l 682 686 l 682 510 l 675 510 b 389 700 647 632 533 700 b 49 378 178 700 49 565 b 378 56 49 190 174 56 z m 147 378 b 411 613 147 553 257 613 b 672 397 569 613 672 532 l 672 374 b 404 143 672 228 574 143 b 147 378 256 143 147 203 z "},"h":{"ha":842,"x_min":0,"x_max":0,"o":"m 182 0 l 182 322 b 436 610 182 493 253 610 b 664 386 590 610 664 543 l 664 0 l 763 0 l 763 399 b 475 700 763 572 667 700 b 189 476 300 700 211 592 l 182 476 l 182 931 l 83 931 l 83 0 z "},"ĥ":{"ha":842,"x_min":0,"x_max":0,"o":"m 1 1014 l 128 1139 l 136 1139 l 261 1014 l 367 1014 l 186 1194 l 76 1194 l -104 1014 z m 182 0 l 182 322 b 436 610 182 493 253 610 b 664 386 590 610 664 543 l 664 0 l 763 0 l 763 399 b 475 700 763 572 667 700 b 189 476 300 700 211 592 l 182 476 l 182 931 l 83 931 l 83 0 z "},"i":{"ha":264,"x_min":0,"x_max":0,"o":"m 182 774 l 182 931 l 83 931 l 83 774 z m 182 0 l 182 686 l 83 686 l 83 0 z "},"ì":{"ha":256,"x_min":0,"x_max":0,"o":"m 182 778 l 8 958 l -126 958 l 81 778 z m 176 0 l 176 694 l 78 694 l 78 0 z "},"í":{"ha":256,"x_min":0,"x_max":0,"o":"m 178 778 l 385 958 l 250 958 l 76 778 z m 176 0 l 176 694 l 78 694 l 78 0 z "},"î":{"ha":256,"x_min":0,"x_max":0,"o":"m -1 778 l 124 903 l 132 903 l 257 778 l 363 778 l 182 958 l 74 958 l -107 778 z m 176 0 l 176 694 l 78 694 l 78 0 z "},"ï":{"ha":256,"x_min":0,"x_max":0,"o":"m 290 778 l 290 942 l 194 942 l 194 778 z m 61 778 l 61 942 l -35 942 l -35 778 z m 176 0 l 176 694 l 78 694 l 78 0 z "},"ĩ":{"ha":256,"x_min":0,"x_max":0,"o":"m -6 803 l -6 842 b 36 890 -6 878 13 890 b 100 861 60 890 78 878 l 133 840 b 236 799 164 818 194 799 b 328 910 297 799 328 844 l 328 958 l 260 958 l 260 924 b 218 871 260 882 240 871 b 153 900 193 871 174 883 l 122 921 b 24 961 90 943 61 961 b -74 853 -49 961 -74 913 l -74 803 z m 176 0 l 176 694 l 78 694 l 78 0 z "},"ī":{"ha":256,"x_min":0,"x_max":0,"o":"m 315 832 l 315 904 l -60 904 l -60 832 z m 176 0 l 176 694 l 78 694 l 78 0 z "},"ĭ":{"ha":256,"x_min":0,"x_max":0,"o":"m 128 764 b 308 918 236 764 308 824 l 308 950 l 233 950 l 233 918 b 128 831 233 860 207 831 b 22 918 51 831 22 860 l 22 950 l -53 950 l -53 918 b 128 764 -53 824 19 764 z m 176 0 l 176 694 l 78 694 l 78 0 z "},"į":{"ha":264,"x_min":0,"x_max":0,"o":"m 182 774 l 182 931 l 83 931 l 83 774 z m 236 -260 l 236 -192 l 151 -192 b 89 -144 106 -192 89 -172 b 124 -75 89 -122 101 -103 l 182 0 l 182 686 l 83 686 l 83 0 l 113 0 l 69 -50 b 8 -165 39 -83 8 -115 b 136 -260 8 -225 53 -260 z "},"j":{"ha":267,"x_min":0,"x_max":0,"o":"m 183 774 l 183 931 l 85 931 l 85 774 z m -29 -236 b 183 -32 92 -236 183 -182 l 183 686 l 85 686 l 85 -53 b -24 -156 85 -128 46 -156 l -82 -156 l -82 -236 z "},"ĵ":{"ha":267,"x_min":0,"x_max":0,"o":"m 4 778 l 129 903 l 138 903 l 263 778 l 368 778 l 188 958 l 79 958 l -101 778 z m -29 -236 b 183 -32 92 -236 183 -182 l 183 686 l 85 686 l 85 -53 b -24 -156 85 -128 46 -156 l -82 -156 l -82 -236 z "},"k":{"ha":771,"x_min":0,"x_max":0,"o":"m 182 0 l 182 308 l 411 308 l 642 0 l 757 0 l 493 358 l 758 686 l 642 686 l 413 399 l 182 399 l 182 931 l 83 931 l 83 0 z "},"ķ":{"ha":771,"x_min":0,"x_max":0,"o":"m 182 0 l 182 308 l 411 308 l 642 0 l 757 0 l 493 358 l 758 686 l 642 686 l 413 399 l 182 399 l 182 931 l 83 931 l 83 0 z m 293 -278 l 438 -97 l 318 -97 l 201 -278 z "},"l":{"ha":264,"x_min":0,"x_max":0,"o":"m 182 0 l 182 931 l 83 931 l 83 0 z "},"ĺ":{"ha":264,"x_min":0,"x_max":0,"o":"m 189 1014 l 394 1186 l 258 1186 l 85 1014 z m 182 0 l 182 931 l 83 931 l 83 0 z "},"ļ":{"ha":264,"x_min":0,"x_max":0,"o":"m 182 0 l 182 931 l 83 931 l 83 0 z m 44 -278 l 188 -97 l 69 -97 l -47 -278 z "},"ľ":{"ha":342,"x_min":0,"x_max":0,"o":"m 182 0 l 182 931 l 83 931 l 83 0 z m 272 653 b 350 732 321 653 350 678 l 350 931 l 253 931 l 253 760 l 296 760 l 296 729 b 271 704 296 708 288 704 l 250 704 l 250 653 z "},"m":{"ha":1339,"x_min":0,"x_max":0,"o":"m 182 0 l 182 332 b 414 610 182 514 247 610 b 622 386 558 610 622 539 l 622 0 l 721 0 l 721 332 b 953 610 721 514 788 610 b 1163 386 1097 610 1163 539 l 1163 0 l 1261 0 l 1261 400 b 989 700 1261 574 1168 700 b 715 472 817 700 735 590 l 708 472 b 447 700 686 606 600 700 b 178 479 276 700 197 594 l 172 479 l 172 686 l 83 686 l 83 0 z "},"n":{"ha":838,"x_min":0,"x_max":0,"o":"m 182 0 l 182 332 b 436 610 182 508 269 610 b 661 386 593 610 661 528 l 661 0 l 760 0 l 760 400 b 471 700 760 563 664 700 b 179 471 300 700 203 588 l 172 471 l 172 686 l 83 686 l 83 0 z "},"ñ":{"ha":838,"x_min":0,"x_max":0,"o":"m 289 803 l 289 842 b 331 890 289 878 307 890 b 393 861 354 890 372 878 l 428 840 b 531 799 458 818 489 799 b 622 910 592 799 622 844 l 622 958 l 554 958 l 554 924 b 513 871 554 882 535 871 b 447 900 488 871 468 883 l 417 921 b 317 961 385 943 356 961 b 219 853 244 961 219 913 l 219 803 z m 182 0 l 182 332 b 436 610 182 508 269 610 b 661 386 593 610 661 528 l 661 0 l 760 0 l 760 400 b 471 700 760 563 664 700 b 179 471 300 700 203 588 l 172 471 l 172 686 l 83 686 l 83 0 z "},"ń":{"ha":838,"x_min":0,"x_max":0,"o":"m 472 778 l 679 958 l 544 958 l 371 778 z m 182 0 l 182 332 b 436 610 182 508 269 610 b 661 386 593 610 661 528 l 661 0 l 760 0 l 760 400 b 471 700 760 563 664 700 b 179 471 300 700 203 588 l 172 471 l 172 686 l 83 686 l 83 0 z "},"ņ":{"ha":838,"x_min":0,"x_max":0,"o":"m 182 0 l 182 332 b 436 610 182 508 269 610 b 661 386 593 610 661 528 l 661 0 l 760 0 l 760 400 b 471 700 760 563 664 700 b 179 471 300 700 203 588 l 172 471 l 172 686 l 83 686 l 83 0 z m 336 -278 l 481 -97 l 361 -97 l 244 -278 z "},"ň":{"ha":838,"x_min":0,"x_max":0,"o":"m 476 778 l 657 958 l 549 958 l 426 833 l 418 833 l 294 958 l 186 958 l 368 778 z m 182 0 l 182 332 b 436 610 182 508 269 610 b 661 386 593 610 661 528 l 661 0 l 760 0 l 760 400 b 471 700 760 563 664 700 b 179 471 300 700 203 588 l 172 471 l 172 686 l 83 686 l 83 0 z "},"o":{"ha":840,"x_min":0,"x_max":0,"o":"m 419 -14 b 793 343 644 -14 793 135 b 419 700 793 551 644 700 b 47 343 196 700 47 551 b 419 -14 47 135 196 -14 z m 419 75 b 144 343 231 75 144 176 b 419 611 144 508 231 611 b 696 343 608 611 696 508 b 419 75 696 176 608 75 z "},"ò":{"ha":840,"x_min":0,"x_max":0,"o":"m 474 778 l 301 958 l 167 958 l 374 778 z m 419 -14 b 793 343 644 -14 793 135 b 419 700 793 551 644 700 b 47 343 196 700 47 551 b 419 -14 47 135 196 -14 z m 419 75 b 144 343 231 75 144 176 b 419 611 144 508 231 611 b 696 343 608 611 696 508 b 419 75 696 176 608 75 z "},"ó":{"ha":840,"x_min":0,"x_max":0,"o":"m 469 778 l 676 958 l 543 958 l 368 778 z m 419 -14 b 793 343 644 -14 793 135 b 419 700 793 551 644 700 b 47 343 196 700 47 551 b 419 -14 47 135 196 -14 z m 419 75 b 144 343 231 75 144 176 b 419 611 144 508 231 611 b 696 343 608 611 696 508 b 419 75 696 176 608 75 z "},"ô":{"ha":840,"x_min":0,"x_max":0,"o":"m 290 778 l 415 903 l 424 903 l 549 778 l 656 778 l 474 958 l 365 958 l 185 778 z m 419 -14 b 793 343 644 -14 793 135 b 419 700 793 551 644 700 b 47 343 196 700 47 551 b 419 -14 47 135 196 -14 z m 419 75 b 144 343 231 75 144 176 b 419 611 144 508 231 611 b 696 343 608 611 696 508 b 419 75 696 176 608 75 z "},"õ":{"ha":840,"x_min":0,"x_max":0,"o":"m 288 803 l 288 842 b 328 890 288 878 304 890 b 392 861 353 890 369 878 l 426 840 b 529 799 456 818 486 799 b 621 910 590 799 621 844 l 621 958 l 553 958 l 553 924 b 511 871 553 882 532 871 b 444 900 485 871 467 883 l 415 921 b 315 961 383 943 354 961 b 218 853 243 961 218 913 l 218 803 z m 419 -14 b 793 343 644 -14 793 135 b 419 700 793 551 644 700 b 47 343 196 700 47 551 b 419 -14 47 135 196 -14 z m 419 75 b 144 343 231 75 144 176 b 419 611 144 508 231 611 b 696 343 608 611 696 508 b 419 75 696 176 608 75 z "},"ö":{"ha":840,"x_min":0,"x_max":0,"o":"m 582 778 l 582 942 l 488 942 l 488 778 z m 353 778 l 353 942 l 258 942 l 258 778 z m 419 -14 b 793 343 644 -14 793 135 b 419 700 793 551 644 700 b 47 343 196 700 47 551 b 419 -14 47 135 196 -14 z m 419 75 b 144 343 231 75 144 176 b 419 611 144 508 231 611 b 696 343 608 611 696 508 b 419 75 696 176 608 75 z "},"ō":{"ha":840,"x_min":0,"x_max":0,"o":"m 607 832 l 607 904 l 232 904 l 232 832 z m 419 -14 b 793 343 644 -14 793 135 b 419 700 793 551 644 700 b 47 343 196 700 47 551 b 419 -14 47 135 196 -14 z m 419 75 b 144 343 231 75 144 176 b 419 611 144 508 231 611 b 696 343 608 611 696 508 b 419 75 696 176 608 75 z "},"ŏ":{"ha":840,"x_min":0,"x_max":0,"o":"m 419 764 b 600 918 528 764 600 824 l 600 950 l 525 950 l 525 918 b 419 831 525 860 499 831 b 314 918 343 831 314 860 l 314 950 l 239 950 l 239 918 b 419 764 239 824 313 764 z m 419 -14 b 793 343 644 -14 793 135 b 419 700 793 551 644 700 b 47 343 196 700 47 551 b 419 -14 47 135 196 -14 z m 419 75 b 144 343 231 75 144 176 b 419 611 144 508 231 611 b 696 343 608 611 696 508 b 419 75 696 176 608 75 z "},"ő":{"ha":840,"x_min":0,"x_max":0,"o":"m 576 778 l 744 958 l 621 958 l 482 778 z m 349 778 l 515 958 l 392 958 l 253 778 z m 419 -14 b 793 343 644 -14 793 135 b 419 700 793 551 644 700 b 47 343 196 700 47 551 b 419 -14 47 135 196 -14 z m 419 75 b 144 343 231 75 144 176 b 419 611 144 508 231 611 b 696 343 608 611 696 508 b 419 75 696 176 608 75 z "},"p":{"ha":853,"x_min":0,"x_max":0,"o":"m 182 -236 l 182 201 l 183 201 b 476 -14 215 69 325 -14 b 815 343 694 -14 815 135 b 479 700 815 551 693 700 b 183 493 317 700 214 617 l 172 493 l 172 686 l 83 686 l 83 -236 z m 182 331 l 182 343 b 453 608 182 513 282 608 b 715 343 608 608 715 542 b 450 76 715 144 610 76 b 182 331 289 76 182 168 z "},"q":{"ha":853,"x_min":0,"x_max":0,"o":"m 376 -14 b 669 201 528 -14 638 69 l 672 201 l 672 -236 l 771 -236 l 771 686 l 681 686 l 681 493 l 669 493 b 374 700 639 617 536 700 b 38 343 160 700 38 551 b 376 -14 38 135 158 -14 z m 138 343 b 401 608 138 542 244 608 b 672 343 571 608 672 513 l 672 331 b 404 76 672 168 565 76 b 138 343 243 76 138 144 z "},"r":{"ha":679,"x_min":0,"x_max":0,"o":"m 182 0 l 182 372 b 382 614 182 526 243 614 b 550 440 501 614 550 557 l 550 388 l 649 388 l 649 456 b 421 700 649 583 579 700 b 179 499 278 700 200 608 l 172 499 l 172 686 l 83 686 l 83 0 z "},"ŕ":{"ha":679,"x_min":0,"x_max":0,"o":"m 415 778 l 622 958 l 488 958 l 314 778 z m 182 0 l 182 372 b 382 614 182 526 243 614 b 550 440 501 614 550 557 l 550 388 l 649 388 l 649 456 b 421 700 649 583 579 700 b 179 499 278 700 200 608 l 172 499 l 172 686 l 83 686 l 83 0 z "},"ŗ":{"ha":679,"x_min":0,"x_max":0,"o":"m 182 0 l 182 372 b 382 614 182 526 243 614 b 550 440 501 614 550 557 l 550 388 l 649 388 l 649 456 b 421 700 649 583 579 700 b 179 499 278 700 200 608 l 172 499 l 172 686 l 83 686 l 83 0 z m 46 -278 l 190 -97 l 71 -97 l -46 -278 z "},"ř":{"ha":679,"x_min":0,"x_max":0,"o":"m 419 778 l 600 958 l 492 958 l 369 833 l 361 833 l 239 958 l 131 958 l 311 778 z m 182 0 l 182 372 b 382 614 182 526 243 614 b 550 440 501 614 550 557 l 550 388 l 649 388 l 649 456 b 421 700 649 583 579 700 b 179 499 278 700 200 608 l 172 499 l 172 686 l 83 686 l 83 0 z "},"s":{"ha":736,"x_min":0,"x_max":0,"o":"m 385 -14 b 690 183 563 -14 690 54 b 464 365 690 294 611 344 l 296 389 b 146 501 182 406 146 431 b 350 618 146 583 206 618 b 579 460 525 618 579 563 l 579 453 l 678 453 l 678 456 b 353 700 678 617 550 700 b 49 503 164 700 49 624 b 253 324 49 389 128 340 l 436 297 b 593 183 550 279 593 256 b 386 68 593 104 540 68 b 150 224 218 68 150 108 l 150 232 l 51 232 l 51 229 b 385 -14 51 71 174 -14 z "},"ś":{"ha":736,"x_min":0,"x_max":0,"o":"m 411 778 l 618 958 l 483 958 l 310 778 z m 385 -14 b 690 183 563 -14 690 54 b 464 365 690 294 611 344 l 296 389 b 146 501 182 406 146 431 b 350 618 146 583 206 618 b 579 460 525 618 579 563 l 579 453 l 678 453 l 678 456 b 353 700 678 617 550 700 b 49 503 164 700 49 624 b 253 324 49 389 128 340 l 436 297 b 593 183 550 279 593 256 b 386 68 593 104 540 68 b 150 224 218 68 150 108 l 150 232 l 51 232 l 51 229 b 385 -14 51 71 174 -14 z "},"ŝ":{"ha":736,"x_min":0,"x_max":0,"o":"m 232 778 l 357 903 l 365 903 l 490 778 l 596 778 l 415 958 l 307 958 l 126 778 z m 385 -14 b 690 183 563 -14 690 54 b 464 365 690 294 611 344 l 296 389 b 146 501 182 406 146 431 b 350 618 146 583 206 618 b 579 460 525 618 579 563 l 579 453 l 678 453 l 678 456 b 353 700 678 617 550 700 b 49 503 164 700 49 624 b 253 324 49 389 128 340 l 436 297 b 593 183 550 279 593 256 b 386 68 593 104 540 68 b 150 224 218 68 150 108 l 150 232 l 51 232 l 51 229 b 385 -14 51 71 174 -14 z "},"ş":{"ha":736,"x_min":0,"x_max":0,"o":"m 446 -283 b 563 -181 519 -283 563 -244 b 446 -79 563 -119 519 -79 l 410 -79 l 410 -14 b 690 183 575 -7 690 60 b 464 365 690 294 611 344 l 296 389 b 146 501 182 406 146 431 b 350 618 146 583 206 618 b 579 460 525 618 579 563 l 579 453 l 678 453 l 678 456 b 353 700 678 617 550 700 b 49 503 164 700 49 624 b 253 324 49 389 128 340 l 436 297 b 593 183 550 279 593 256 b 386 68 593 104 540 68 b 150 224 218 68 150 108 l 150 232 l 51 232 l 51 229 b 349 -12 51 81 160 -4 l 349 -142 l 446 -142 b 494 -182 472 -142 494 -147 b 446 -221 494 -214 472 -221 l 335 -221 l 335 -283 z "},"š":{"ha":736,"x_min":0,"x_max":0,"o":"m 415 778 l 596 958 l 488 958 l 365 833 l 357 833 l 235 958 l 126 958 l 307 778 z m 385 -14 b 690 183 563 -14 690 54 b 464 365 690 294 611 344 l 296 389 b 146 501 182 406 146 431 b 350 618 146 583 206 618 b 579 460 525 618 579 563 l 579 453 l 678 453 l 678 456 b 353 700 678 617 550 700 b 49 503 164 700 49 624 b 253 324 49 389 128 340 l 436 297 b 593 183 550 279 593 256 b 386 68 593 104 540 68 b 150 224 218 68 150 108 l 150 232 l 51 232 l 51 229 b 385 -14 51 71 174 -14 z "},"ș":{"ha":736,"x_min":0,"x_max":0,"o":"m 385 -14 b 690 183 563 -14 690 54 b 464 365 690 294 611 344 l 296 389 b 146 501 182 406 146 431 b 350 618 146 583 206 618 b 579 460 525 618 579 563 l 579 453 l 678 453 l 678 456 b 353 700 678 617 550 700 b 49 503 164 700 49 624 b 253 324 49 389 128 340 l 436 297 b 593 183 550 279 593 256 b 386 68 593 104 540 68 b 150 224 218 68 150 108 l 150 232 l 51 232 l 51 229 b 385 -14 51 71 174 -14 z m 293 -278 l 438 -97 l 318 -97 l 201 -278 z "},"t":{"ha":529,"x_min":0,"x_max":0,"o":"m 504 0 l 504 90 l 379 90 b 232 213 279 90 232 117 l 232 601 l 504 601 l 504 686 l 232 686 l 232 850 l 132 850 l 132 686 l 10 686 l 10 601 l 132 601 l 132 218 b 356 0 132 57 219 0 z "},"ț":{"ha":529,"x_min":0,"x_max":0,"o":"m 504 0 l 504 90 l 379 90 b 232 213 279 90 232 117 l 232 601 l 504 601 l 504 686 l 232 686 l 232 850 l 132 850 l 132 686 l 10 686 l 10 601 l 132 601 l 132 218 b 356 0 132 57 219 0 z m 286 -278 l 429 -97 l 310 -97 l 194 -278 z "},"ť":{"ha":508,"x_min":0,"x_max":0,"o":"m 335 763 b 414 842 385 763 414 788 l 414 1040 l 315 1040 l 315 871 l 360 871 l 360 840 b 335 814 360 818 351 814 l 313 814 l 313 763 z m 504 0 l 504 90 l 379 90 b 232 213 279 90 232 117 l 232 601 l 504 601 l 504 686 l 232 686 l 232 850 l 132 850 l 132 686 l 10 686 l 10 601 l 132 601 l 132 218 b 356 0 132 57 219 0 z "},"u":{"ha":842,"x_min":0,"x_max":0,"o":"m 371 -14 b 664 214 542 -14 640 97 l 671 214 l 671 0 l 760 0 l 760 686 l 661 686 l 661 353 b 406 75 661 176 574 75 b 178 300 247 75 178 157 l 178 686 l 79 686 l 79 285 b 371 -14 79 122 175 -14 z "},"ù":{"ha":842,"x_min":0,"x_max":0,"o":"m 474 778 l 300 958 l 167 958 l 372 778 z m 371 -14 b 664 214 542 -14 640 97 l 671 214 l 671 0 l 760 0 l 760 686 l 661 686 l 661 353 b 406 75 661 176 574 75 b 178 300 247 75 178 157 l 178 686 l 79 686 l 79 285 b 371 -14 79 122 175 -14 z "},"ú":{"ha":842,"x_min":0,"x_max":0,"o":"m 469 778 l 676 958 l 542 958 l 368 778 z m 371 -14 b 664 214 542 -14 640 97 l 671 214 l 671 0 l 760 0 l 760 686 l 661 686 l 661 353 b 406 75 661 176 574 75 b 178 300 247 75 178 157 l 178 686 l 79 686 l 79 285 b 371 -14 79 122 175 -14 z "},"û":{"ha":842,"x_min":0,"x_max":0,"o":"m 290 778 l 415 903 l 424 903 l 549 778 l 654 778 l 474 958 l 365 958 l 185 778 z m 371 -14 b 664 214 542 -14 640 97 l 671 214 l 671 0 l 760 0 l 760 686 l 661 686 l 661 353 b 406 75 661 176 574 75 b 178 300 247 75 178 157 l 178 686 l 79 686 l 79 285 b 371 -14 79 122 175 -14 z "},"ü":{"ha":842,"x_min":0,"x_max":0,"o":"m 582 778 l 582 942 l 486 942 l 486 778 z m 353 778 l 353 942 l 257 942 l 257 778 z m 371 -14 b 664 214 542 -14 640 97 l 671 214 l 671 0 l 760 0 l 760 686 l 661 686 l 661 353 b 406 75 661 176 574 75 b 178 300 247 75 178 157 l 178 686 l 79 686 l 79 285 b 371 -14 79 122 175 -14 z "},"ũ":{"ha":842,"x_min":0,"x_max":0,"o":"m 286 803 l 286 842 b 328 890 286 878 304 890 b 392 861 353 890 369 878 l 425 840 b 528 799 456 818 486 799 b 621 910 590 799 621 844 l 621 958 l 551 958 l 551 924 b 510 871 551 882 532 871 b 444 900 485 871 465 883 l 414 921 b 315 961 383 943 354 961 b 218 853 243 961 218 913 l 218 803 z m 371 -14 b 664 214 542 -14 640 97 l 671 214 l 671 0 l 760 0 l 760 686 l 661 686 l 661 353 b 406 75 661 176 574 75 b 178 300 247 75 178 157 l 178 686 l 79 686 l 79 285 b 371 -14 79 122 175 -14 z "},"ū":{"ha":842,"x_min":0,"x_max":0,"o":"m 607 832 l 607 904 l 232 904 l 232 832 z m 371 -14 b 664 214 542 -14 640 97 l 671 214 l 671 0 l 760 0 l 760 686 l 661 686 l 661 353 b 406 75 661 176 574 75 b 178 300 247 75 178 157 l 178 686 l 79 686 l 79 285 b 371 -14 79 122 175 -14 z "},"ŭ":{"ha":842,"x_min":0,"x_max":0,"o":"m 419 764 b 600 918 528 764 600 824 l 600 950 l 525 950 l 525 918 b 419 831 525 860 499 831 b 314 918 343 831 314 860 l 314 950 l 239 950 l 239 918 b 419 764 239 824 311 764 z m 371 -14 b 664 214 542 -14 640 97 l 671 214 l 671 0 l 760 0 l 760 686 l 661 686 l 661 353 b 406 75 661 176 574 75 b 178 300 247 75 178 157 l 178 686 l 79 686 l 79 285 b 371 -14 79 122 175 -14 z "},"ů":{"ha":842,"x_min":0,"x_max":0,"o":"m 419 756 b 557 878 501 756 557 804 b 419 1000 557 951 501 1000 b 282 878 338 1000 282 951 b 419 756 282 804 338 756 z m 419 804 b 335 878 361 804 335 831 b 419 951 335 925 361 951 b 504 878 478 951 504 925 b 419 804 504 831 478 804 z m 371 -14 b 664 214 542 -14 640 97 l 671 214 l 671 0 l 760 0 l 760 686 l 661 686 l 661 353 b 406 75 661 176 574 75 b 178 300 247 75 178 157 l 178 686 l 79 686 l 79 285 b 371 -14 79 122 175 -14 z "},"ű":{"ha":842,"x_min":0,"x_max":0,"o":"m 576 778 l 744 958 l 621 958 l 481 778 z m 347 778 l 515 958 l 392 958 l 253 778 z m 371 -14 b 664 214 542 -14 640 97 l 671 214 l 671 0 l 760 0 l 760 686 l 661 686 l 661 353 b 406 75 661 176 574 75 b 178 300 247 75 178 157 l 178 686 l 79 686 l 79 285 b 371 -14 79 122 175 -14 z "},"ų":{"ha":842,"x_min":0,"x_max":0,"o":"m 371 -14 b 664 214 542 -14 640 97 l 671 214 l 671 0 l 692 0 l 647 -50 b 586 -165 617 -83 586 -115 b 715 -260 586 -225 631 -260 l 814 -260 l 814 -192 l 729 -192 b 667 -144 683 -192 667 -172 b 701 -75 667 -122 679 -103 l 760 0 l 760 686 l 661 686 l 661 353 b 406 75 661 176 574 75 b 178 300 247 75 178 157 l 178 686 l 79 686 l 79 285 b 371 -14 79 122 175 -14 z "},"v":{"ha":804,"x_min":0,"x_max":0,"o":"m 463 0 l 790 686 l 683 686 l 407 97 l 399 97 l 121 686 l 14 686 l 342 0 z "},"w":{"ha":1188,"x_min":0,"x_max":0,"o":"m 356 0 l 536 449 l 590 601 l 597 601 l 651 449 l 829 0 l 953 0 l 1175 686 l 1074 686 l 926 232 l 893 88 l 885 88 l 838 240 l 658 686 l 532 686 l 351 240 l 304 86 l 296 86 l 261 232 l 115 686 l 14 686 l 233 0 z "},"ŵ":{"ha":1188,"x_min":0,"x_max":0,"o":"m 464 778 l 590 903 l 599 903 l 724 778 l 829 778 l 649 958 l 539 958 l 358 778 z m 356 0 l 536 449 l 590 601 l 597 601 l 651 449 l 829 0 l 953 0 l 1175 686 l 1074 686 l 926 232 l 893 88 l 885 88 l 838 240 l 658 686 l 532 686 l 351 240 l 304 86 l 296 86 l 261 232 l 115 686 l 14 686 l 233 0 z "},"ẁ":{"ha":1188,"x_min":0,"x_max":0,"o":"m 649 778 l 475 958 l 340 958 l 547 778 z m 356 0 l 536 449 l 590 601 l 597 601 l 651 449 l 829 0 l 953 0 l 1175 686 l 1074 686 l 926 232 l 893 88 l 885 88 l 838 240 l 658 686 l 532 686 l 351 240 l 304 86 l 296 86 l 261 232 l 115 686 l 14 686 l 233 0 z "},"ẃ":{"ha":1188,"x_min":0,"x_max":0,"o":"m 644 778 l 850 958 l 717 958 l 543 778 z m 356 0 l 536 449 l 590 601 l 597 601 l 651 449 l 829 0 l 953 0 l 1175 686 l 1074 686 l 926 232 l 893 88 l 885 88 l 838 240 l 658 686 l 532 686 l 351 240 l 304 86 l 296 86 l 261 232 l 115 686 l 14 686 l 233 0 z "},"ẅ":{"ha":1188,"x_min":0,"x_max":0,"o":"m 756 778 l 756 942 l 661 942 l 661 778 z m 526 778 l 526 942 l 432 942 l 432 778 z m 356 0 l 536 449 l 590 601 l 597 601 l 651 449 l 829 0 l 953 0 l 1175 686 l 1074 686 l 926 232 l 893 88 l 885 88 l 838 240 l 658 686 l 532 686 l 351 240 l 304 86 l 296 86 l 261 232 l 115 686 l 14 686 l 233 0 z "},"x":{"ha":804,"x_min":0,"x_max":0,"o":"m 131 0 l 397 290 l 403 290 l 672 0 l 792 0 l 478 344 l 478 351 l 792 686 l 674 686 l 407 401 l 400 401 l 132 686 l 13 686 l 325 349 l 325 342 l 13 0 z "},"y":{"ha":785,"x_min":0,"x_max":0,"o":"m 174 -236 b 401 -96 288 -236 351 -201 l 774 686 l 665 686 l 475 279 l 401 110 l 393 110 l 317 278 l 115 686 l 7 686 l 347 1 l 314 -68 b 192 -146 288 -125 261 -146 l 88 -146 l 88 -236 z "},"ý":{"ha":785,"x_min":0,"x_max":0,"o":"m 439 778 l 646 958 l 513 958 l 338 778 z m 174 -236 b 401 -96 288 -236 351 -201 l 774 686 l 665 686 l 475 279 l 401 110 l 393 110 l 317 278 l 115 686 l 7 686 l 347 1 l 314 -68 b 192 -146 288 -125 261 -146 l 88 -146 l 88 -236 z "},"ÿ":{"ha":785,"x_min":0,"x_max":0,"o":"m 551 778 l 551 942 l 457 942 l 457 778 z m 322 778 l 322 942 l 228 942 l 228 778 z m 174 -236 b 401 -96 288 -236 351 -201 l 774 686 l 665 686 l 475 279 l 401 110 l 393 110 l 317 278 l 115 686 l 7 686 l 347 1 l 314 -68 b 192 -146 288 -125 261 -146 l 88 -146 l 88 -236 z "},"ŷ":{"ha":785,"x_min":0,"x_max":0,"o":"m 260 778 l 385 903 l 393 903 l 518 778 l 625 778 l 443 958 l 335 958 l 154 778 z m 174 -236 b 401 -96 288 -236 351 -201 l 774 686 l 665 686 l 475 279 l 401 110 l 393 110 l 317 278 l 115 686 l 7 686 l 347 1 l 314 -68 b 192 -146 288 -125 261 -146 l 88 -146 l 88 -236 z "},"ỳ":{"ha":785,"x_min":0,"x_max":0,"o":"m 443 778 l 271 958 l 136 958 l 343 778 z m 174 -236 b 401 -96 288 -236 351 -201 l 774 686 l 665 686 l 475 279 l 401 110 l 393 110 l 317 278 l 115 686 l 7 686 l 347 1 l 314 -68 b 192 -146 288 -125 261 -146 l 88 -146 l 88 -236 z "},"z":{"ha":768,"x_min":0,"x_max":0,"o":"m 732 0 l 732 88 l 288 88 l 164 85 l 164 92 l 288 199 l 711 599 l 711 686 l 57 686 l 57 597 l 433 597 l 578 600 l 578 593 l 433 465 l 36 86 l 36 0 z "},"ź":{"ha":768,"x_min":0,"x_max":0,"o":"m 435 778 l 640 958 l 507 958 l 333 778 z m 732 0 l 732 88 l 288 88 l 164 85 l 164 92 l 288 199 l 711 599 l 711 686 l 57 686 l 57 597 l 433 597 l 578 600 l 578 593 l 433 465 l 36 86 l 36 0 z "},"ż":{"ha":768,"x_min":0,"x_max":0,"o":"m 433 778 l 433 942 l 335 942 l 335 778 z m 732 0 l 732 88 l 288 88 l 164 85 l 164 92 l 288 199 l 711 599 l 711 686 l 57 686 l 57 597 l 433 597 l 578 600 l 578 593 l 433 465 l 36 86 l 36 0 z "},"ž":{"ha":768,"x_min":0,"x_max":0,"o":"m 438 778 l 619 958 l 511 958 l 388 833 l 379 833 l 257 958 l 149 958 l 329 778 z m 732 0 l 732 88 l 288 88 l 164 85 l 164 92 l 288 199 l 711 599 l 711 686 l 57 686 l 57 597 l 433 597 l 578 600 l 578 593 l 433 465 l 36 86 l 36 0 z "},"ª":{"ha":296,"x_min":0,"x_max":0,"o":"m 122 728 b 200 769 163 728 189 744 l 203 769 l 203 732 l 247 732 l 247 854 b 153 944 247 908 217 944 b 50 864 89 944 50 910 l 50 860 l 101 860 l 101 863 b 149 900 101 888 110 900 b 199 857 190 900 199 885 l 199 847 l 115 838 b 49 783 71 833 49 815 b 122 728 49 747 78 728 z m 97 786 b 126 806 97 797 103 803 l 201 815 b 135 765 201 775 164 765 b 97 786 110 765 97 771 z "},"º":{"ha":318,"x_min":0,"x_max":0,"o":"m 158 728 b 269 836 226 728 269 775 b 158 944 269 897 226 944 b 49 836 92 944 49 897 b 158 728 49 775 92 728 z m 158 775 b 97 836 117 775 97 796 b 158 897 97 876 117 897 b 219 836 201 897 219 876 b 158 775 219 796 201 775 z "},"ß":{"ha":857,"x_min":0,"x_max":0,"o":"m 167 0 l 167 610 b 457 840 167 778 239 840 b 706 686 651 840 706 782 b 469 526 706 579 621 526 l 317 526 l 317 442 l 492 442 b 733 267 646 442 733 388 b 501 90 733 144 671 90 l 317 90 l 317 0 l 510 0 b 833 251 722 0 833 94 b 575 486 833 376 744 469 l 575 494 b 804 703 732 514 804 597 b 461 935 804 836 689 935 b 69 608 207 935 69 826 l 69 0 z "},"æ":{"ha":1342,"x_min":0,"x_max":0,"o":"m 281 -14 b 622 203 435 -14 576 56 l 626 203 b 967 -14 675 67 797 -14 b 1300 228 1157 -14 1300 85 l 1300 238 l 1201 238 l 1201 228 b 964 68 1201 128 1126 68 b 697 315 782 68 703 161 l 1301 315 b 1308 379 1306 333 1308 354 b 965 700 1308 583 1165 700 b 668 560 832 700 729 647 b 390 700 626 643 538 700 b 57 438 176 700 57 582 l 57 429 l 156 429 l 156 438 b 388 611 156 558 236 611 b 604 425 544 611 604 558 l 604 374 l 263 338 b 42 163 138 324 42 275 b 281 -14 42 51 139 -14 z m 964 618 b 1215 397 1125 618 1215 542 b 1215 376 1215 390 1215 383 l 697 376 b 964 618 704 526 785 618 z m 140 169 b 293 274 140 240 196 264 l 606 308 b 606 300 606 306 606 303 b 301 63 594 131 465 63 b 140 169 189 63 140 99 z "},"ǽ":{"ha":1342,"x_min":0,"x_max":0,"o":"m 725 778 l 932 958 l 797 958 l 624 778 z m 281 -14 b 622 203 435 -14 576 56 l 626 203 b 967 -14 675 67 797 -14 b 1300 228 1157 -14 1300 85 l 1300 238 l 1201 238 l 1201 228 b 964 68 1201 128 1126 68 b 697 315 782 68 703 161 l 1301 315 b 1308 379 1306 333 1308 354 b 965 700 1308 583 1165 700 b 668 560 832 700 729 647 b 390 700 626 643 538 700 b 57 438 176 700 57 582 l 57 429 l 156 429 l 156 438 b 388 611 156 558 236 611 b 604 425 544 611 604 558 l 604 374 l 263 338 b 42 163 138 324 42 275 b 281 -14 42 51 139 -14 z m 964 618 b 1215 397 1125 618 1215 542 b 1215 376 1215 390 1215 383 l 697 376 b 964 618 704 526 785 618 z m 140 169 b 293 274 140 240 196 264 l 606 308 b 606 300 606 306 606 303 b 301 63 594 131 465 63 b 140 169 189 63 140 99 z "},"ð":{"ha":843,"x_min":0,"x_max":0,"o":"m 382 -14 b 800 372 678 -14 800 143 b 611 772 800 536 715 671 l 808 821 l 796 876 l 558 818 b 390 931 501 867 442 904 l 258 931 b 456 793 324 892 392 846 l 214 735 l 226 678 l 508 747 b 699 383 615 646 696 522 l 689 383 b 358 575 653 494 546 575 b -3 288 135 575 -3 465 b 382 -14 -3 104 136 -14 z m 386 81 b 97 289 188 81 97 147 b 386 490 97 422 192 490 b 679 292 575 490 679 419 b 386 81 679 151 585 81 z "},"ø":{"ha":840,"x_min":0,"x_max":0,"o":"m 419 -14 b 793 343 644 -14 793 135 b 697 593 793 443 758 531 l 765 663 l 721 707 l 650 633 b 419 700 589 676 510 700 b 47 343 196 700 47 551 b 133 103 47 247 78 165 l 56 22 l 99 -24 l 181 60 b 419 -14 243 13 324 -14 z m 144 343 b 419 611 144 508 231 611 b 589 571 489 611 546 597 l 194 165 b 144 343 161 210 144 271 z m 419 75 b 240 122 343 75 283 92 l 636 531 b 696 343 676 485 696 421 b 419 75 696 176 608 75 z "},"ǿ":{"ha":840,"x_min":0,"x_max":0,"o":"m 469 778 l 676 958 l 543 958 l 368 778 z m 419 -14 b 793 343 644 -14 793 135 b 697 593 793 443 758 531 l 765 663 l 721 707 l 650 633 b 419 700 589 676 510 700 b 47 343 196 700 47 551 b 133 103 47 247 78 165 l 56 22 l 99 -24 l 181 60 b 419 -14 243 13 324 -14 z m 144 343 b 419 611 144 508 231 611 b 589 571 489 611 546 597 l 194 165 b 144 343 161 210 144 271 z m 419 75 b 240 122 343 75 283 92 l 636 531 b 696 343 676 485 696 421 b 419 75 696 176 608 75 z "},"þ":{"ha":843,"x_min":0,"x_max":0,"o":"m 171 -236 l 171 201 l 172 201 b 472 -14 206 69 318 -14 b 804 343 686 -14 804 135 b 472 700 804 551 686 700 b 172 485 318 700 206 617 l 171 485 l 171 931 l 72 931 l 72 -236 z m 171 331 l 171 356 b 444 608 171 518 281 608 b 706 343 601 608 706 542 b 444 76 706 144 601 76 b 171 331 281 76 171 168 z "},"đ":{"ha":888,"x_min":0,"x_max":0,"o":"m 374 -14 b 675 196 528 -14 643 65 l 681 196 l 681 0 l 771 0 l 771 743 l 878 743 l 878 824 l 771 824 l 771 931 l 672 931 l 672 824 l 336 824 l 336 743 l 672 743 l 672 444 l 665 444 b 367 644 635 556 529 644 b 38 315 157 644 38 507 b 374 -14 38 122 157 -14 z m 138 315 b 396 553 138 493 243 553 b 672 317 569 553 672 457 l 672 304 b 399 76 672 160 563 76 b 138 315 240 76 138 138 z "},"ħ":{"ha":840,"x_min":0,"x_max":0,"o":"m 190 0 l 190 246 b 450 533 190 418 263 533 b 674 310 601 533 674 467 l 674 0 l 772 0 l 772 322 b 489 624 772 496 678 624 b 197 400 311 624 221 515 l 190 400 l 190 743 l 532 743 l 532 824 l 190 824 l 190 931 l 92 931 l 92 824 l -10 824 l -10 743 l 92 743 l 92 0 z "},"ĳ":{"ha":531,"x_min":0,"x_max":0,"o":"m 182 774 l 182 931 l 83 931 l 83 774 z m 447 774 l 447 931 l 349 931 l 349 774 z m 182 0 l 182 686 l 83 686 l 83 0 z m 235 -236 b 447 -32 357 -236 447 -182 l 447 686 l 349 686 l 349 -53 b 242 -156 349 -128 310 -156 l 183 -156 l 183 -236 z "},"ŀ":{"ha":332,"x_min":0,"x_max":0,"o":"m 182 0 l 182 931 l 83 931 l 83 0 z m 350 383 l 350 547 l 251 547 l 251 383 z "},"ł":{"ha":400,"x_min":0,"x_max":0,"o":"m 260 0 l 260 557 l 414 644 l 379 710 l 260 642 l 260 931 l 161 931 l 161 586 l -14 486 l 21 422 l 161 501 l 161 0 z "},"ŋ":{"ha":817,"x_min":0,"x_max":0,"o":"m 171 0 l 171 332 b 425 610 171 508 258 610 b 650 386 582 610 650 528 l 650 -53 b 543 -156 650 -128 611 -156 l 485 -156 l 485 -236 l 536 -236 b 749 -46 654 -236 749 -183 l 749 400 b 461 700 749 563 654 700 b 168 471 290 700 192 588 l 161 471 l 161 686 l 72 686 l 72 0 z "},"œ":{"ha":1451,"x_min":0,"x_max":0,"o":"m 419 -14 b 744 154 568 -14 683 50 b 1061 -14 801 49 914 -14 b 1394 228 1253 -14 1394 85 l 1394 238 l 1296 238 l 1296 228 b 1060 68 1296 128 1221 68 b 793 315 878 68 799 161 l 1397 315 b 1404 379 1401 333 1404 354 b 1060 700 1404 583 1261 700 b 746 531 914 700 803 635 b 419 700 685 635 568 700 b 47 343 196 700 47 551 b 419 -14 47 135 196 -14 z m 1058 618 b 1311 397 1219 618 1311 542 b 1311 376 1311 390 1311 383 l 793 376 b 1058 618 800 526 881 618 z m 419 75 b 144 343 231 75 144 176 b 419 611 144 508 231 611 b 696 343 608 611 696 508 b 419 75 696 176 608 75 z "},"ŧ":{"ha":529,"x_min":0,"x_max":0,"o":"m 504 0 l 504 90 l 379 90 b 232 213 279 90 232 117 l 232 367 l 504 367 l 504 443 l 232 443 l 232 608 l 504 608 l 504 686 l 232 686 l 232 850 l 132 850 l 132 686 l 10 686 l 10 608 l 132 608 l 132 443 l 10 443 l 10 367 l 132 367 l 132 218 b 356 0 132 57 219 0 z "},"ƒ":{"ha":681,"x_min":0,"x_max":0,"o":"m 56 -236 b 328 -8 214 -236 300 -167 l 403 421 l 604 421 l 621 510 l 418 510 l 453 710 b 615 840 469 803 511 840 l 678 840 l 694 931 l 635 931 b 353 703 468 931 379 856 l 319 510 l 167 510 l 151 421 l 303 421 l 226 -15 b 63 -146 210 -108 167 -146 l 1 -146 l -14 -236 z "},"¼":{"ha":974,"x_min":0,"x_max":0,"o":"m 249 465 l 249 931 l 179 931 b 89 874 168 886 146 874 l 32 874 l 32 808 l 171 808 l 171 465 z m 121 0 l 911 931 l 811 931 l 21 0 z m 851 0 l 851 94 l 943 94 l 943 165 l 851 165 l 851 465 l 764 465 l 460 153 l 460 94 l 774 94 l 774 0 z m 558 165 l 558 172 l 768 378 l 774 378 l 774 165 z "},"½":{"ha":1050,"x_min":0,"x_max":0,"o":"m 249 465 l 249 931 l 179 931 b 89 874 168 886 146 874 l 32 874 l 32 808 l 171 808 l 171 465 z m 121 0 l 911 931 l 811 931 l 21 0 z m 1025 0 l 1025 68 l 825 68 l 682 61 b 769 154 682 108 711 133 l 872 186 b 1026 328 971 217 1026 251 b 824 472 1026 408 957 472 b 596 303 667 472 596 389 l 596 290 l 672 290 l 672 301 b 819 403 672 372 718 403 b 950 325 924 403 950 374 b 850 239 950 279 917 261 l 746 203 b 604 26 654 172 604 128 l 604 0 z "},"¾":{"ha":1069,"x_min":0,"x_max":0,"o":"m 265 465 b 478 601 379 465 478 508 b 361 713 478 671 431 706 l 361 719 b 458 822 431 729 458 768 b 258 944 458 904 374 944 b 32 793 110 944 32 878 l 32 781 l 107 781 l 107 793 b 254 878 107 850 142 878 b 381 808 357 878 381 850 b 254 740 381 749 344 740 l 157 740 l 157 683 l 267 683 b 399 613 358 683 399 674 b 261 533 399 549 350 533 b 107 619 142 533 107 560 l 107 633 l 32 633 l 32 618 b 265 465 32 529 106 465 z m 228 0 l 1018 931 l 919 931 l 129 0 z m 929 -1 l 929 93 l 1019 93 l 1019 164 l 929 164 l 929 464 l 840 464 l 536 151 l 536 93 l 851 93 l 851 -1 z m 636 164 l 636 171 l 844 376 l 851 376 l 851 164 z "},"_":{"ha":528,"x_min":0,"x_max":0,"o":"m 514 -74 l 514 0 l 14 0 l 14 -74 z "},"-":{"ha":461,"x_min":0,"x_max":0,"o":"m 419 363 l 419 450 l 42 450 l 42 363 z "},"–":{"ha":647,"x_min":0,"x_max":0,"o":"m 606 363 l 606 450 l 42 450 l 42 363 z "},"—":{"ha":1038,"x_min":0,"x_max":0,"o":"m 996 363 l 996 450 l 42 450 l 42 363 z "},"(":{"ha":388,"x_min":0,"x_max":0,"o":"m 374 -53 b 164 465 268 81 164 213 b 374 983 164 718 268 850 l 322 1031 b 58 465 204 914 58 732 b 322 -100 58 199 204 17 z "},"[":{"ha":333,"x_min":0,"x_max":0,"o":"m 319 -83 l 319 1 l 176 1 l 176 929 l 319 929 l 319 1014 l 83 1014 l 83 -83 z "},"{":{"ha":376,"x_min":0,"x_max":0,"o":"m 358 -83 l 358 11 l 332 11 b 246 100 269 11 246 32 l 246 346 b 142 461 246 432 204 461 l 142 469 b 246 585 204 469 246 499 l 246 831 b 332 919 246 899 269 919 l 358 919 l 358 1014 l 338 1014 b 153 835 210 1014 153 947 l 153 586 b 79 517 153 532 136 517 l 28 517 l 28 414 l 79 414 b 153 344 136 414 153 399 l 153 96 b 338 -83 153 -17 210 -83 z "},"‚":{"ha":340,"x_min":0,"x_max":0,"o":"m 69 -122 b 164 -32 128 -122 164 -93 l 164 193 l 42 193 l 42 0 l 96 0 l 96 -33 b 68 -62 96 -58 86 -62 l 40 -62 l 40 -122 z "},"„":{"ha":397,"x_min":0,"x_max":0,"o":"m 69 -122 b 164 -32 128 -122 164 -93 l 164 193 l 42 193 l 42 0 l 96 0 l 96 -33 b 68 -62 96 -58 86 -62 l 40 -62 l 40 -122 z m 260 -122 b 356 -32 319 -122 356 -93 l 356 193 l 233 193 l 233 0 l 288 0 l 288 -33 b 260 -62 288 -58 278 -62 l 232 -62 l 232 -122 z "},")":{"ha":403,"x_min":0,"x_max":0,"o":"m 25 983 b 233 465 131 850 233 718 b 25 -53 233 213 131 81 l 75 -100 b 339 465 193 17 339 199 b 75 1031 339 732 193 914 z "},"]":{"ha":342,"x_min":0,"x_max":0,"o":"m -4 1 l -4 -83 l 232 -83 l 232 1014 l -4 1014 l -4 929 l 138 929 l 138 1 z "},"}":{"ha":378,"x_min":0,"x_max":0,"o":"m 19 1014 l 19 919 l 46 919 b 132 831 108 919 132 899 l 132 585 b 236 469 132 499 174 469 l 236 461 b 132 346 174 461 132 432 l 132 100 b 46 11 132 32 108 11 l 19 11 l 19 -83 l 40 -83 b 225 96 168 -83 225 -17 l 225 344 b 299 414 225 399 242 414 l 350 414 l 350 517 l 299 517 b 225 586 242 517 225 532 l 225 835 b 40 1014 225 947 168 1014 z "},"‘":{"ha":206,"x_min":0,"x_max":0,"o":"m 136 972 b 42 881 76 972 42 942 l 42 657 l 164 657 l 164 849 l 110 849 l 110 882 b 138 911 110 907 119 911 l 165 911 l 165 972 z "},"“":{"ha":397,"x_min":0,"x_max":0,"o":"m 136 972 b 42 881 76 972 42 942 l 42 657 l 164 657 l 164 849 l 110 849 l 110 882 b 138 911 110 907 119 911 l 165 911 l 165 972 z m 328 972 b 233 881 268 972 233 942 l 233 657 l 356 657 l 356 849 l 301 849 l 301 882 b 329 911 301 907 310 911 l 357 911 l 357 972 z "},"‹":{"ha":340,"x_min":0,"x_max":0,"o":"m 21 474 l 21 374 l 299 175 l 299 276 l 93 419 l 93 428 l 299 571 l 299 674 z "},"’":{"ha":206,"x_min":0,"x_max":0,"o":"m 69 615 b 164 707 128 615 164 644 l 164 931 l 42 931 l 42 738 l 96 738 l 96 706 b 68 675 96 681 86 675 l 40 675 l 40 615 z "},"”":{"ha":397,"x_min":0,"x_max":0,"o":"m 260 615 b 356 707 319 615 356 644 l 356 931 l 233 931 l 233 738 l 288 738 l 288 706 b 260 675 288 681 278 675 l 232 675 l 232 615 z m 69 615 b 164 707 128 615 164 644 l 164 931 l 42 931 l 42 738 l 96 738 l 96 706 b 68 675 96 681 86 675 l 40 675 l 40 615 z "},"›":{"ha":340,"x_min":0,"x_max":0,"o":"m 319 374 l 319 474 l 42 674 l 42 571 l 247 428 l 247 419 l 42 276 l 42 175 z "},"!":{"ha":244,"x_min":0,"x_max":0,"o":"m 168 306 b 183 833 168 457 183 726 l 183 931 l 61 931 l 61 833 b 76 306 61 726 76 458 z m 178 0 l 178 188 l 67 188 l 67 0 z "},"\"":{"ha":354,"x_min":0,"x_max":0,"o":"m 292 618 l 315 779 l 315 931 l 214 931 l 214 779 l 238 618 z m 115 618 l 139 779 l 139 931 l 38 931 l 38 779 l 63 618 z "},"#":{"ha":1158,"x_min":0,"x_max":0,"o":"m 251 0 l 338 225 l 633 225 l 547 0 l 647 0 l 733 225 l 1011 225 l 1011 314 l 768 314 l 878 604 l 1131 604 l 1131 693 l 914 693 l 1004 931 l 906 931 l 815 693 l 518 693 l 608 931 l 510 931 l 419 693 l 147 693 l 147 604 l 383 604 l 274 314 l 28 314 l 28 225 l 239 225 l 151 0 z m 481 606 l 783 606 l 672 313 l 368 313 z "},"%":{"ha":1103,"x_min":0,"x_max":0,"o":"m 267 483 b 500 715 422 483 500 593 b 267 946 500 836 422 946 b 35 715 113 946 35 836 b 267 483 35 593 113 483 z m 206 0 l 996 931 l 897 931 l 107 0 z m 267 556 b 113 715 157 556 113 614 b 267 874 113 815 157 874 b 422 715 378 874 422 815 b 267 556 422 614 378 556 z m 836 -14 b 1068 217 990 -14 1068 94 b 836 447 1068 338 990 447 b 603 217 681 447 603 338 b 836 -14 603 94 681 -14 z m 836 58 b 681 217 725 58 681 117 b 836 375 681 317 725 375 b 990 217 946 375 990 317 b 836 58 990 117 946 58 z "},"&":{"ha":938,"x_min":0,"x_max":0,"o":"m 390 -14 b 792 314 656 -14 792 108 l 792 443 l 950 443 l 950 528 l 792 528 l 792 686 l 694 686 l 694 528 l 364 528 b 144 686 225 528 144 575 b 356 844 144 797 204 844 l 581 844 l 581 936 l 365 936 b 46 700 165 936 46 854 b 224 497 46 599 107 518 l 224 488 b 18 251 93 464 18 379 b 390 -14 18 78 158 -14 z m 393 76 b 117 260 194 76 117 133 b 340 443 117 386 200 443 l 694 443 l 694 310 b 393 76 694 144 611 76 z "},"'":{"ha":178,"x_min":0,"x_max":0,"o":"m 115 618 l 139 779 l 139 931 l 38 931 l 38 779 l 63 618 z "},"*":{"ha":496,"x_min":0,"x_max":0,"o":"m 243 665 l 253 665 l 340 531 l 404 576 l 301 701 l 306 710 l 461 753 l 436 828 l 288 769 l 279 775 l 288 936 l 208 936 l 217 775 l 208 769 l 60 828 l 35 753 l 189 710 l 193 701 l 92 576 l 154 531 z "},",":{"ha":206,"x_min":0,"x_max":0,"o":"m 69 -122 b 164 -32 128 -122 164 -93 l 164 193 l 42 193 l 42 0 l 96 0 l 96 -33 b 68 -62 96 -58 86 -62 l 40 -62 l 40 -122 z "},".":{"ha":206,"x_min":0,"x_max":0,"o":"m 164 0 l 164 193 l 42 193 l 42 0 z "},"/":{"ha":547,"x_min":0,"x_max":0,"o":"m 78 -28 l 578 958 l 472 958 l -28 -28 z "},":":{"ha":206,"x_min":0,"x_max":0,"o":"m 164 493 l 164 686 l 42 686 l 42 493 z m 164 0 l 164 193 l 42 193 l 42 0 z "},";":{"ha":206,"x_min":0,"x_max":0,"o":"m 164 493 l 164 686 l 42 686 l 42 493 z m 69 -122 b 164 -32 128 -122 164 -93 l 164 193 l 42 193 l 42 0 l 96 0 l 96 -33 b 68 -62 96 -58 86 -62 l 40 -62 l 40 -122 z "},"?":{"ha":790,"x_min":0,"x_max":0,"o":"m 393 300 l 393 339 b 461 428 393 385 408 404 l 561 471 b 753 704 660 514 753 578 b 408 944 753 835 651 944 b 14 640 132 944 14 806 l 14 614 l 111 614 l 111 642 b 404 854 111 781 189 854 b 654 701 599 854 654 789 b 511 542 654 621 603 583 l 411 496 b 294 344 328 460 294 414 l 294 300 z m 401 0 l 401 188 l 290 188 l 290 0 z "},"@":{"ha":1225,"x_min":0,"x_max":0,"o":"m 560 57 b 785 214 686 57 757 129 l 789 214 b 971 57 800 121 860 57 b 1197 401 1110 57 1197 193 b 628 915 1197 726 969 915 b 18 349 257 915 18 693 b 597 -207 18 7 243 -207 b 867 -160 707 -207 793 -189 l 849 -90 b 604 -128 771 -114 704 -128 b 108 349 293 -128 108 18 b 625 831 108 685 300 831 b 1110 394 957 831 1110 676 b 976 136 1110 203 1064 136 b 881 244 908 136 881 168 l 881 611 l 793 611 l 793 465 l 786 465 b 561 624 760 556 685 624 b 293 340 403 624 293 518 b 560 57 293 158 403 57 z m 386 340 b 585 549 386 485 453 549 b 786 353 699 549 786 482 l 786 328 b 585 131 786 197 699 131 b 386 340 453 131 386 196 z "},"\\":{"ha":550,"x_min":0,"x_max":0,"o":"m 578 -28 l 78 958 l -28 958 l 472 -28 z "},"¡":{"ha":226,"x_min":0,"x_max":0,"o":"m 57 694 l 57 507 l 169 507 l 169 694 z m 68 389 b 51 -139 68 238 51 -32 l 51 -236 l 175 -236 l 175 -139 b 160 389 175 -32 160 236 z "},"·":{"ha":226,"x_min":0,"x_max":0,"o":"m 174 347 l 174 540 l 51 540 l 51 347 z "},"¿":{"ha":769,"x_min":0,"x_max":0,"o":"m 368 694 l 368 507 l 479 507 l 479 694 z m 376 394 l 376 356 b 308 267 376 310 361 290 l 210 224 b 18 -10 111 181 18 117 b 361 -250 18 -140 118 -250 b 756 54 638 -250 756 -111 l 756 81 l 658 81 l 658 53 b 367 -160 658 -86 582 -160 b 117 -7 171 -160 117 -94 b 258 153 117 74 167 111 l 358 199 b 475 350 442 235 475 281 l 475 394 z "},"†":{"ha":674,"x_min":0,"x_max":0,"o":"m 386 0 l 386 617 l 646 617 l 646 701 l 386 701 l 386 931 l 288 931 l 288 701 l 28 701 l 28 617 l 288 617 l 288 0 z "},"‡":{"ha":674,"x_min":0,"x_max":0,"o":"m 386 0 l 386 228 l 646 228 l 646 313 l 386 313 l 386 617 l 646 617 l 646 701 l 386 701 l 386 931 l 288 931 l 288 701 l 28 701 l 28 617 l 288 617 l 288 313 l 28 313 l 28 228 l 288 228 l 288 0 z "},"•":{"ha":365,"x_min":0,"x_max":0,"o":"m 182 321 b 328 465 261 321 328 375 b 182 610 328 556 261 610 b 38 465 104 610 38 556 b 182 321 38 375 104 321 z "},"…":{"ha":733,"x_min":0,"x_max":0,"o":"m 174 0 l 174 193 l 51 193 l 51 0 z m 428 0 l 428 193 l 306 193 l 306 0 z m 682 -1 l 682 192 l 560 192 l 560 -1 z "},"‰":{"ha":1640,"x_min":0,"x_max":0,"o":"m 267 483 b 500 715 422 483 500 593 b 267 946 500 836 422 946 b 35 715 113 946 35 836 b 267 483 35 593 113 483 z m 206 0 l 996 931 l 897 931 l 107 0 z m 267 556 b 113 715 157 556 113 614 b 267 874 113 815 157 874 b 422 715 378 874 422 815 b 267 556 422 614 378 556 z m 1374 -14 b 1606 217 1528 -14 1606 94 b 1374 447 1606 338 1528 447 b 1140 217 1218 447 1140 338 b 1374 -14 1140 94 1218 -14 z m 836 -14 b 1068 217 990 -14 1068 94 b 836 447 1068 338 990 447 b 603 217 681 447 603 338 b 836 -14 603 94 681 -14 z m 1374 58 b 1218 217 1263 58 1218 117 b 1374 375 1218 317 1263 375 b 1528 217 1483 375 1528 317 b 1374 58 1528 117 1483 58 z m 836 58 b 681 217 725 58 681 117 b 836 375 681 317 725 375 b 990 217 946 375 990 317 b 836 58 990 117 946 58 z "},"+":{"ha":644,"x_min":0,"x_max":0,"o":"m 367 194 l 367 424 l 593 424 l 593 507 l 367 507 l 367 736 l 278 736 l 278 507 l 51 507 l 51 424 l 278 424 l 278 194 z "},"<":{"ha":635,"x_min":0,"x_max":0,"o":"m 40 521 l 40 410 l 582 165 l 582 264 l 132 461 l 132 469 l 582 667 l 582 765 z "},"=":{"ha":644,"x_min":0,"x_max":0,"o":"m 593 568 l 593 651 l 51 651 l 51 568 z m 593 278 l 593 363 l 51 363 l 51 278 z "},">":{"ha":635,"x_min":0,"x_max":0,"o":"m 593 410 l 593 521 l 51 765 l 51 667 l 501 469 l 501 461 l 51 264 l 51 165 z "},"|":{"ha":258,"x_min":0,"x_max":0,"o":"m 176 -139 l 176 1069 l 83 1069 l 83 -139 z "},"~":{"ha":767,"x_min":0,"x_max":0,"o":"m 179 347 l 179 436 b 233 500 179 476 193 500 b 340 446 271 500 303 474 l 411 406 b 563 346 457 376 501 346 b 681 478 654 346 681 411 l 681 582 l 596 582 l 596 494 b 543 432 596 451 579 432 b 426 486 504 432 467 461 l 364 519 b 219 586 317 554 272 586 b 93 450 113 586 93 508 l 93 347 z "},"±":{"ha":646,"x_min":0,"x_max":0,"o":"m 593 119 l 593 204 l 367 204 l 367 424 l 593 424 l 593 507 l 367 507 l 367 736 l 279 736 l 279 507 l 51 507 l 51 424 l 279 424 l 279 204 l 51 204 l 51 119 z "},"×":{"ha":631,"x_min":0,"x_max":0,"o":"m 547 296 l 376 467 l 546 636 l 486 696 l 317 526 l 144 697 l 83 635 l 254 464 l 85 294 l 144 235 l 314 404 l 485 233 z "},"÷":{"ha":665,"x_min":0,"x_max":0,"o":"m 388 626 l 388 810 l 282 810 l 282 626 z m 604 424 l 604 507 l 64 507 l 64 424 z m 388 121 l 388 304 l 282 304 l 282 121 z "},"⁄":{"ha":244,"x_min":0,"x_max":0,"o":"m -224 0 l 567 931 l 468 931 l -322 0 z "},"−":{"ha":644,"x_min":0,"x_max":0,"o":"m 593 424 l 593 507 l 51 507 l 51 424 z "},"≈":{"ha":690,"x_min":0,"x_max":0,"o":"m 138 254 l 138 340 b 193 404 138 382 153 404 b 299 350 231 404 261 379 l 367 310 b 521 250 413 282 460 250 b 639 386 613 250 639 319 l 639 486 l 594 486 l 594 492 b 639 597 626 515 639 551 l 639 697 l 554 697 l 554 611 b 500 547 554 569 539 547 b 393 600 463 547 426 575 l 335 633 b 175 704 282 669 235 704 b 51 572 79 704 51 638 l 51 465 l 97 465 l 97 458 b 51 354 63 435 51 397 l 51 254 z m 508 333 b 389 390 467 333 428 364 l 325 425 b 189 490 281 458 239 490 b 128 475 164 490 143 485 l 128 553 b 186 619 128 596 144 619 b 296 565 225 619 257 593 l 368 522 b 510 463 414 492 454 463 b 564 479 533 463 551 468 l 564 400 b 508 333 564 356 546 333 z "},"≠":{"ha":644,"x_min":0,"x_max":0,"o":"m 593 278 l 593 363 l 299 363 l 440 568 l 593 568 l 593 653 l 499 653 l 563 744 l 497 785 l 406 653 l 51 653 l 51 568 l 347 568 l 206 363 l 51 363 l 51 278 l 147 278 l 83 186 l 149 146 l 240 278 z "},"≤":{"ha":635,"x_min":0,"x_max":0,"o":"m 583 108 l 583 264 l 133 461 l 133 469 l 583 667 l 583 765 l 42 521 l 42 410 l 496 200 l 496 193 l 42 193 l 42 108 z "},"≥":{"ha":635,"x_min":0,"x_max":0,"o":"m 593 108 l 593 193 l 139 193 l 139 200 l 593 410 l 593 521 l 51 765 l 51 667 l 501 469 l 501 461 l 51 264 l 51 108 z "},"$":{"ha":860,"x_min":0,"x_max":0,"o":"m 469 -139 l 469 -14 b 815 244 710 -6 815 115 b 542 492 815 389 708 460 l 346 531 b 147 697 208 560 147 592 b 415 851 147 799 231 851 b 701 644 618 851 701 779 l 701 628 l 801 628 l 801 636 b 469 943 801 794 699 926 l 469 1069 l 378 1069 l 378 943 b 47 690 143 929 47 810 b 319 443 47 536 168 472 l 517 406 b 715 236 653 378 715 340 b 444 79 715 131 631 79 b 143 285 226 79 143 151 l 143 303 l 43 303 l 43 294 b 378 -11 43 132 150 8 l 378 -139 z "},"¢":{"ha":781,"x_min":0,"x_max":0,"o":"m 440 -139 l 440 -12 b 753 265 618 -1 753 108 l 753 276 l 656 276 l 656 268 b 410 76 656 146 567 76 b 147 343 226 76 147 175 b 410 610 147 511 226 610 b 656 418 567 610 656 540 l 656 410 l 753 410 l 753 421 b 440 699 753 578 618 688 l 440 833 l 349 833 l 349 696 b 49 343 165 671 49 531 b 349 -10 49 156 165 15 l 349 -139 z "},"£":{"ha":875,"x_min":0,"x_max":0,"o":"m 596 413 l 596 497 l 239 497 b 178 667 210 543 178 599 b 451 854 178 775 242 854 b 735 622 661 854 735 775 l 735 594 l 832 594 l 832 626 b 453 944 832 803 721 944 b 79 676 197 944 79 819 b 133 497 79 607 104 550 l 42 497 l 42 413 l 186 413 l 219 361 b 274 225 253 308 274 267 b 90 90 274 143 194 90 l 42 90 l 42 0 l 836 0 l 836 90 l 253 90 l 253 96 b 358 242 307 119 358 171 b 299 399 358 289 335 342 l 290 413 z "},"¥":{"ha":914,"x_min":0,"x_max":0,"o":"m 507 0 l 507 289 l 894 289 l 894 374 l 536 374 l 626 507 l 894 507 l 894 592 l 683 592 l 913 931 l 790 931 l 578 608 l 464 422 l 456 422 l 340 608 l 126 931 l 1 931 l 232 592 l 19 592 l 19 507 l 289 507 l 379 374 l 19 374 l 19 289 l 408 289 l 408 0 z "},"^":{"ha":651,"x_min":0,"x_max":0,"o":"m 114 389 l 322 840 l 329 840 l 538 389 l 631 389 l 385 931 l 267 931 l 21 389 z "},"¦":{"ha":232,"x_min":0,"x_max":0,"o":"m 163 521 l 163 1069 l 69 1069 l 69 521 z m 163 -139 l 163 410 l 69 410 l 69 -139 z "},"§":{"ha":694,"x_min":0,"x_max":0,"o":"m 368 -14 b 671 171 549 -14 671 56 b 518 322 671 257 601 304 l 518 329 b 671 476 611 340 671 397 b 479 629 671 569 594 613 l 272 658 b 126 758 169 672 126 696 b 321 865 126 833 185 865 b 560 708 513 865 560 813 l 560 700 l 658 700 l 658 703 b 324 946 658 860 533 946 b 29 758 147 946 29 874 b 179 610 29 668 97 625 l 179 603 b 29 464 85 589 29 539 b 231 303 29 368 106 321 l 428 274 b 574 171 531 258 574 231 b 371 67 574 97 513 67 b 140 224 185 67 140 121 l 140 233 l 42 233 l 42 229 b 368 -14 42 72 164 -14 z m 271 371 b 126 478 169 388 126 411 b 339 571 126 544 176 593 l 428 560 b 574 454 531 546 574 518 b 356 360 574 388 522 332 z "},"©":{"ha":1057,"x_min":0,"x_max":0,"o":"m 529 1 b 1019 465 829 1 1019 192 b 529 929 1019 739 829 929 b 38 465 228 929 38 739 b 529 1 38 192 228 1 z m 529 78 b 121 465 250 78 121 219 b 529 853 121 711 250 853 b 936 465 807 853 936 711 b 529 78 936 219 807 78 z m 533 214 b 786 407 681 214 786 299 l 786 418 l 707 418 l 707 410 b 533 286 707 322 635 286 b 340 465 415 286 340 336 b 533 644 340 594 415 644 b 707 521 635 644 707 610 l 707 513 l 786 513 l 786 524 b 533 717 786 632 681 717 b 261 465 371 717 261 615 b 533 214 261 315 371 214 z "},"®":{"ha":542,"x_min":0,"x_max":0,"o":"m 271 481 b 514 704 419 481 514 579 b 271 928 514 829 419 928 b 28 704 122 928 28 829 b 271 481 28 579 122 481 z m 271 533 b 85 704 163 533 85 581 b 271 875 85 829 163 875 b 458 704 381 875 458 829 b 271 533 458 581 381 533 z m 215 610 l 215 678 l 268 678 b 313 647 293 678 300 671 l 335 610 l 388 610 l 361 651 b 325 686 349 672 342 681 l 325 689 b 381 743 356 690 381 707 b 299 804 381 785 353 804 l 169 804 l 169 610 z m 215 764 l 303 764 b 335 738 326 764 335 760 b 303 713 335 719 326 713 l 215 713 z "},"°":{"ha":325,"x_min":0,"x_max":0,"o":"m 163 699 b 288 822 239 699 288 753 b 163 944 288 890 239 944 b 36 822 85 944 36 890 b 163 699 36 753 85 699 z m 163 754 b 94 822 115 754 94 776 b 163 890 94 867 115 890 b 231 822 210 890 231 867 b 163 754 231 776 210 754 z "},"¶":{"ha":892,"x_min":0,"x_max":0,"o":"m 521 0 l 521 931 l 339 931 b 28 656 168 931 28 843 b 339 375 28 465 168 375 l 422 375 l 422 0 z m 808 0 l 808 931 l 710 931 l 710 0 z "},"™":{"ha":771,"x_min":0,"x_max":0,"o":"m 429 651 l 429 790 l 428 849 l 432 849 l 526 672 l 589 672 l 682 849 l 688 849 l 685 789 l 685 651 l 743 651 l 743 931 l 665 931 l 560 721 l 556 721 l 449 931 l 371 931 l 371 651 z m 196 651 l 196 874 l 322 874 l 322 931 l 7 931 l 7 874 l 135 874 l 135 651 z "}," ":{"ha":256,"x_min":0,"x_max":0,"o":""},"Ẽ":{"ha":844,"x_min":0,"x_max":0,"o":"m 304 1039 l 304 1076 b 343 1126 304 1114 319 1126 b 408 1097 368 1126 388 1114 l 443 1076 b 546 1035 472 1054 503 1035 b 638 1146 607 1035 638 1081 l 638 1194 l 569 1194 l 569 1160 b 528 1107 569 1118 549 1107 b 461 1136 501 1107 483 1119 l 432 1157 b 331 1197 400 1179 369 1197 b 235 1088 258 1197 235 1149 l 235 1039 z m 790 0 l 790 90 l 182 90 l 182 424 l 769 424 l 769 513 l 182 513 l 182 840 l 790 840 l 790 931 l 83 931 l 83 0 z "},"Ỹ":{"ha":900,"x_min":0,"x_max":0,"o":"m 318 1039 l 318 1076 b 358 1126 318 1114 333 1126 b 422 1097 382 1126 401 1114 l 457 1076 b 560 1035 486 1054 517 1035 b 651 1146 621 1035 651 1081 l 651 1194 l 583 1194 l 583 1160 b 542 1107 583 1118 563 1107 b 475 1136 517 1107 497 1119 l 446 1157 b 344 1197 414 1179 383 1197 b 249 1088 272 1197 249 1149 l 249 1039 z m 499 0 l 499 331 l 906 931 l 785 931 l 531 551 l 456 438 l 447 438 l 371 551 l 115 931 l -6 931 l 399 331 l 399 0 z "},"ẽ":{"ha":800,"x_min":0,"x_max":0,"o":"m 267 803 l 267 842 b 308 890 267 878 285 890 b 372 861 333 890 350 878 l 406 840 b 508 799 436 818 467 799 b 601 910 571 799 601 844 l 601 958 l 533 958 l 533 924 b 490 871 533 882 513 871 b 425 900 465 871 447 883 l 396 921 b 296 961 364 943 335 961 b 199 853 224 961 199 913 l 199 803 z m 410 -14 b 743 228 601 -14 743 85 l 743 238 l 644 238 l 644 228 b 408 68 644 128 569 68 b 142 315 226 68 147 161 l 746 315 b 753 379 750 333 753 354 b 408 700 753 583 610 700 b 49 343 188 700 49 551 b 410 -14 49 125 189 -14 z m 407 618 b 660 397 568 618 660 542 b 660 376 660 390 660 383 l 142 376 b 407 618 149 526 229 618 z "},"ỹ":{"ha":785,"x_min":0,"x_max":0,"o":"m 257 803 l 257 842 b 297 890 257 878 274 890 b 361 861 322 890 339 878 l 396 840 b 499 799 425 818 456 799 b 590 910 560 799 590 844 l 590 958 l 522 958 l 522 924 b 481 871 522 882 501 871 b 414 900 454 871 436 883 l 385 921 b 285 961 353 943 324 961 b 188 853 213 961 188 913 l 188 803 z m 174 -236 b 401 -96 288 -236 351 -201 l 774 686 l 665 686 l 475 279 l 401 110 l 393 110 l 317 278 l 115 686 l 7 686 l 347 1 l 314 -68 b 192 -146 288 -125 261 -146 l 88 -146 l 88 -236 z "},"Ĉ":{"ha":983,"x_min":0,"x_max":0,"o":"m 363 1014 l 488 1139 l 496 1139 l 621 1014 l 726 1014 l 546 1194 l 438 1194 l 257 1014 z m 513 -14 b 935 332 754 -14 935 121 l 935 349 l 828 349 l 828 332 b 514 82 828 174 718 82 b 153 465 282 82 153 213 b 514 849 153 718 282 849 b 828 599 718 849 828 757 l 828 582 l 935 582 l 935 599 b 513 944 935 810 753 944 b 49 465 240 944 49 756 b 513 -14 49 175 240 -14 z "},"Ĥ":{"ha":963,"x_min":0,"x_max":0,"o":"m 351 1014 l 478 1139 l 486 1139 l 611 1014 l 717 1014 l 536 1194 l 426 1194 l 246 1014 z m 182 0 l 182 424 l 781 424 l 781 0 l 879 0 l 879 931 l 781 931 l 781 514 l 182 514 l 182 931 l 83 931 l 83 0 z "},"Ţ":{"ha":894,"x_min":0,"x_max":0,"o":"m 497 0 l 497 840 l 879 840 l 879 931 l 15 931 l 15 840 l 399 840 l 399 4 l 374 4 l 374 -142 l 471 -142 b 519 -182 497 -142 519 -147 b 471 -221 519 -214 497 -221 l 360 -221 l 360 -283 l 471 -283 b 588 -181 544 -283 588 -244 b 471 -79 588 -119 544 -79 l 436 -79 l 436 0 z "},"ĉ":{"ha":801,"x_min":0,"x_max":0,"o":"m 294 778 l 419 903 l 428 903 l 553 778 l 658 778 l 478 958 l 369 958 l 189 778 z m 411 -14 b 753 265 603 -14 753 100 l 753 276 l 656 276 l 656 268 b 410 76 656 146 567 76 b 147 343 226 76 147 175 b 410 610 147 511 226 610 b 656 418 567 610 656 540 l 656 410 l 753 410 l 753 421 b 411 700 753 586 603 700 b 49 343 192 700 49 551 b 411 -14 49 135 192 -14 z "},"ı":{"ha":256,"x_min":0,"x_max":0,"o":"m 176 0 l 176 694 l 78 694 l 78 0 z "},"ȷ":{"ha":267,"x_min":0,"x_max":0,"o":"m -29 -236 b 183 -32 92 -236 183 -182 l 183 686 l 85 686 l 85 -53 b -24 -156 85 -128 46 -156 l -82 -156 l -82 -236 z "},"ţ":{"ha":529,"x_min":0,"x_max":0,"o":"m 504 0 l 504 90 l 379 90 b 232 213 279 90 232 117 l 232 601 l 504 601 l 504 686 l 232 686 l 232 850 l 132 850 l 132 686 l 10 686 l 10 601 l 132 601 l 132 218 b 340 0 132 63 213 4 l 340 -142 l 438 -142 b 486 -182 464 -142 486 -147 b 438 -221 486 -214 464 -221 l 328 -221 l 328 -283 l 438 -283 b 554 -181 511 -283 554 -244 b 438 -79 554 -119 511 -79 l 403 -79 l 403 0 z "},"⁰":{"ha":549,"x_min":0,"x_max":0,"o":"m 275 451 b 521 697 429 451 521 556 b 275 944 521 839 429 944 b 28 697 119 944 28 839 b 275 451 28 556 119 451 z m 275 524 b 108 697 167 524 108 579 b 275 872 108 818 167 872 b 442 697 383 872 442 818 b 275 524 442 579 383 524 z "},"¹":{"ha":325,"x_min":0,"x_max":0,"o":"m 225 465 l 225 931 l 156 931 b 65 874 144 886 122 874 l 8 874 l 8 808 l 147 808 l 147 465 z "},"²":{"ha":497,"x_min":0,"x_max":0,"o":"m 468 472 l 468 540 l 268 540 l 125 533 b 213 626 125 581 154 606 l 317 658 b 469 800 414 689 469 724 b 267 944 469 881 400 944 b 39 775 110 944 39 861 l 39 763 l 115 763 l 115 774 b 264 875 115 844 161 875 b 393 797 367 875 393 846 b 293 711 393 751 360 733 l 189 675 b 47 499 97 644 47 600 l 47 472 z "},"³":{"ha":511,"x_min":0,"x_max":0,"o":"m 271 465 b 483 601 386 465 483 508 b 368 713 483 671 438 706 l 368 719 b 464 822 436 729 464 768 b 265 944 464 904 381 944 b 38 793 117 944 38 878 l 38 781 l 114 781 l 114 793 b 261 878 114 850 149 878 b 386 808 364 878 386 850 b 260 740 386 749 351 740 l 164 740 l 164 683 l 274 683 b 406 613 365 683 406 674 b 268 533 406 549 357 533 b 114 619 149 533 114 560 l 114 633 l 38 633 l 38 618 b 271 465 38 529 113 465 z "},"⁴":{"ha":532,"x_min":0,"x_max":0,"o":"m 407 465 l 407 560 l 497 560 l 497 631 l 407 631 l 407 931 l 318 931 l 14 618 l 14 560 l 329 560 l 329 465 z m 114 631 l 114 638 l 322 843 l 329 843 l 329 631 z "},"­":{"ha":833,"x_min":0,"x_max":0,"o":"m 419 363 l 419 450 l 42 450 l 42 363 z "},"«":{"ha":674,"x_min":0,"x_max":0,"o":"m 354 474 l 354 374 l 632 175 l 632 276 l 426 419 l 426 428 l 632 571 l 632 674 z m 21 474 l 21 374 l 299 175 l 299 276 l 93 419 l 93 428 l 299 571 l 299 674 z "},"»":{"ha":674,"x_min":0,"x_max":0,"o":"m 319 374 l 319 474 l 42 674 l 42 571 l 247 428 l 247 419 l 42 276 l 42 175 z m 653 374 l 653 474 l 375 674 l 375 571 l 581 428 l 581 419 l 375 276 l 375 175 z "}," ":{"ha":256,"x_min":0,"x_max":0,"o":""},"\r":{"ha":833,"x_min":0,"x_max":0,"o":""},"€":{"ha":903,"x_min":0,"x_max":0,"o":"m 690 338 l 690 408 l 256 408 b 253 465 254 426 253 446 b 256 522 253 485 254 504 l 690 522 l 690 592 l 264 592 b 606 840 300 758 411 840 l 861 840 l 861 931 l 606 931 b 161 592 369 931 207 803 l 14 592 l 14 522 l 151 522 b 149 465 150 504 149 485 b 151 408 149 446 150 426 l 14 408 l 14 338 l 161 338 b 606 0 207 128 369 0 l 861 0 l 861 90 l 606 90 b 265 338 413 90 300 171 z "},"₹":{"ha":853,"x_min":0,"x_max":0,"o":"m 754 0 l 521 288 b 386 390 478 336 443 376 l 386 399 b 642 614 546 396 633 476 l 794 614 l 794 693 l 642 693 l 642 851 l 794 851 l 794 931 l 63 931 l 63 851 l 543 851 l 543 693 l 63 693 l 63 614 l 543 614 b 353 457 538 500 472 457 l 63 457 l 63 372 l 188 372 b 406 268 294 372 351 335 l 625 0 z "},"̈":{"ha":481,"x_min":0,"x_max":0,"o":"m 403 778 l 403 942 l 307 942 l 307 778 z m 174 778 l 174 942 l 78 942 l 78 778 z "},"̇":{"ha":221,"x_min":0,"x_max":0,"o":"m 160 778 l 160 942 l 61 942 l 61 778 z "},"̀":{"ha":444,"x_min":0,"x_max":0,"o":"m 286 778 l 113 958 l -22 958 l 185 778 z "},"́":{"ha":444,"x_min":0,"x_max":0,"o":"m 265 778 l 471 958 l 338 958 l 164 778 z "},"̋":{"ha":619,"x_min":0,"x_max":0,"o":"m 481 778 l 647 958 l 525 958 l 385 778 z m 251 778 l 418 958 l 296 958 l 156 778 z "},"̂":{"ha":665,"x_min":0,"x_max":0,"o":"m 206 778 l 332 903 l 340 903 l 465 778 l 571 778 l 390 958 l 282 958 l 101 778 z "},"̌":{"ha":665,"x_min":0,"x_max":0,"o":"m 390 778 l 571 958 l 463 958 l 340 833 l 332 833 l 210 958 l 101 958 l 282 778 z "},"̆":{"ha":467,"x_min":0,"x_max":0,"o":"m 233 764 b 414 918 340 764 414 824 l 414 950 l 339 950 l 339 918 b 233 831 339 860 313 831 b 128 918 157 831 128 860 l 128 950 l 53 950 l 53 918 b 233 764 53 824 125 764 z "},"̊":{"ha":378,"x_min":0,"x_max":0,"o":"m 189 756 b 328 878 272 756 328 804 b 189 1000 328 951 272 1000 b 51 878 107 1000 51 951 b 189 756 51 804 107 756 z m 189 804 b 104 878 131 804 104 831 b 189 951 104 925 131 951 b 274 878 247 951 274 925 b 189 804 274 831 247 804 z "},"̃":{"ha":518,"x_min":0,"x_max":0,"o":"m 128 803 l 128 842 b 169 890 128 878 146 890 b 233 861 194 890 211 878 l 267 840 b 369 799 297 818 328 799 b 463 910 432 799 463 844 l 463 958 l 394 958 l 394 924 b 351 871 394 882 374 871 b 286 900 326 871 307 883 l 257 921 b 157 961 225 943 196 961 b 60 853 85 961 60 913 l 60 803 z "},"̄":{"ha":500,"x_min":0,"x_max":0,"o":"m 438 832 l 438 904 l 63 904 l 63 832 z "},"̒":{"ha":854,"x_min":0,"x_max":0,"o":"m 514 958 l 369 778 l 489 778 l 606 958 z "},"̦":{"ha":356,"x_min":0,"x_max":0,"o":"m 110 -278 l 253 -97 l 133 -97 l 18 -278 z "},"̧":{"ha":349,"x_min":0,"x_max":0,"o":"m 257 -283 b 375 -181 331 -283 375 -244 b 257 -79 375 -119 331 -79 l 222 -79 l 222 4 l 161 4 l 161 -142 l 257 -142 b 307 -182 285 -142 307 -147 b 257 -221 307 -214 285 -221 l 147 -221 l 147 -283 z "},"̨":{"ha":342,"x_min":0,"x_max":0,"o":"m 293 -260 l 293 -192 l 207 -192 b 144 -144 163 -192 144 -172 b 181 -75 144 -122 157 -103 l 239 0 l 169 0 l 125 -50 b 64 -165 96 -83 64 -115 b 193 -260 64 -225 110 -260 z "},"̵":{"ha":888,"x_min":0,"x_max":0,"o":"m 714 743 l 714 824 l 172 824 l 172 743 z "},"̷":{"ha":428,"x_min":0,"x_max":0,"o":"m 428 644 l 393 710 l 0 486 l 35 422 z "},"̸":{"ha":817,"x_min":0,"x_max":0,"o":"m 764 664 l 719 708 l 53 22 l 97 -22 z "}}}
